<?xml version="1.0" encoding="utf-8" ?>
<svg xmlns="http://www.w3.org/2000/svg" xmlns:xlink="http://www.w3.org/1999/xlink" width="4000" height="4000">
	<path fill="#74B4BC" transform="scale(3.90625 3.90625)" d="M339.591 1024L-0 1024L0 -0L1024 0L1024 1024L636.759 1024L339.591 1024Z"/>
	<path fill="#A6DBDA" transform="scale(3.90625 3.90625)" d="M639.419 677.328L640.923 677.731C644.904 677.735 657.619 688.842 660.521 691.755C683.563 714.883 693.049 746.063 692.784 778.25C692.735 784.206 692.245 790.1 691.5 796.005C691.205 798.342 691.121 801.282 689.98 803.383L697.109 810.571C694.167 817.26 690.61 823.689 687.25 830.175C684.461 835.559 681.428 843.425 676.231 846.793C675.776 847.146 675.303 847.436 674.779 847.679C669.765 849.997 661.478 847.699 656.659 845.802L666.138 824.797C659.611 819.996 652.29 816.099 645.01 812.574C626.046 803.394 603.495 796.387 582.224 797.699C580.295 797.815 577.587 797.623 575.809 798.288L571.385 798.63C572.469 794.338 572.253 793.729 570.365 789.948L573.901 777.496C574.582 775.028 575.021 772.213 576.54 770.12C577.412 770.104 578.294 770.203 579.076 769.754C579.708 769.391 579.605 768.511 579.737 767.85C581.623 758.353 583.574 749.592 586.578 740.36L588.878 734.389C590.497 729.998 592.933 725.672 595.232 721.603C606.059 702.431 620.956 688.892 639.419 677.328Z"/>
	<path fill="#2D6D99" transform="scale(3.90625 3.90625)" d="M639.419 677.328L640.923 677.731C616.587 694.125 599.859 718.706 590.259 746.215C587.528 754.044 585.804 762.109 583.307 769.985C592.852 770.695 602.334 771.034 611.815 772.486C638.34 776.548 668.781 786.561 689.98 803.383L697.109 810.571C694.167 817.26 690.61 823.689 687.25 830.175C684.461 835.559 681.428 843.425 676.231 846.793C675.776 847.146 675.303 847.436 674.779 847.679C669.765 849.997 661.478 847.699 656.659 845.802L666.138 824.797C659.611 819.996 652.29 816.099 645.01 812.574C626.046 803.394 603.495 796.387 582.224 797.699C580.295 797.815 577.587 797.623 575.809 798.288L571.385 798.63C572.469 794.338 572.253 793.729 570.365 789.948L573.901 777.496C574.582 775.028 575.021 772.213 576.54 770.12C577.412 770.104 578.294 770.203 579.076 769.754C579.708 769.391 579.605 768.511 579.737 767.85C581.623 758.353 583.574 749.592 586.578 740.36L588.878 734.389C590.497 729.998 592.933 725.672 595.232 721.603C606.059 702.431 620.956 688.892 639.419 677.328Z"/>
	<path fill="#323651" transform="scale(3.90625 3.90625)" d="M666.138 824.797C670.586 829.278 675.86 833.566 678.248 839.536L676.231 846.793C675.776 847.146 675.303 847.436 674.779 847.679C669.765 849.997 661.478 847.699 656.659 845.802L666.138 824.797Z"/>
	<path fill="#F7C493" transform="scale(3.90625 3.90625)" d="M582.224 797.699C603.495 796.387 626.046 803.394 645.01 812.574C652.29 816.099 659.611 819.996 666.138 824.797L656.659 845.802L637.341 882.353C632.585 892.007 627.005 899.591 617.908 905.369C620.105 911.186 621.089 917.515 622.444 923.577C622.856 925.42 623.88 928.338 623.802 930.127L634.261 978.469L627.829 981.593L636.759 1024L339.591 1024L347.117 982.711C345.339 981.196 342.276 980.898 340.323 979.354L349.215 932.944L353.982 910.336C351.068 910.437 348.209 910.56 345.306 910.214L344.739 910.14C332.38 909.9 321.058 906.068 311.984 897.623C315.02 897.648 319.075 900.643 322.065 901.796C330.097 904.894 339.552 905.302 348.058 904.785C372.502 903.3 397.382 894.505 420 885.539C431.296 881.06 442.658 876.428 453.546 871.016L500.633 846.089L525.992 831.812L557.109 817.75C561.382 816.056 565.811 814.746 570.018 812.894L566.345 810.007L571.385 798.63L575.809 798.288C577.587 797.623 580.295 797.815 582.224 797.699Z"/>
	<path fill="#E89371" transform="scale(3.90625 3.90625)" d="M575.809 798.288C577.587 797.623 580.295 797.815 582.224 797.699L575.57 817.542C591.67 820.6 614.014 828.595 623.892 842.316C603.938 829.855 579.08 821.54 555.518 827.256C549.231 828.782 543.263 832.16 537.679 835.35C518.706 846.189 501.976 859.794 487.646 876.302C493.802 880.694 501.895 883.11 508.958 885.733C530.084 893.58 551.945 899.794 574.404 902.183C585.001 903.311 596.096 903.789 606.644 901.987C615.752 900.43 623.716 896.009 630.25 889.529C632.639 887.16 634.66 884.42 637.341 882.353C632.585 892.007 627.005 899.591 617.908 905.369C612.482 907.965 606.902 909.912 601 911.089C592.603 912.763 584 912.607 575.5 912.023C542.373 909.744 510.69 897.524 480.087 885.492L445.504 882.893C414.593 897.651 379.287 910.226 344.739 910.14C332.38 909.9 321.058 906.068 311.984 897.623C315.02 897.648 319.075 900.643 322.065 901.796C330.097 904.894 339.552 905.302 348.058 904.785C372.502 903.3 397.382 894.505 420 885.539C431.296 881.06 442.658 876.428 453.546 871.016L500.633 846.089L525.992 831.812L557.109 817.75C561.382 816.056 565.811 814.746 570.018 812.894L566.345 810.007L571.385 798.63L575.809 798.288Z"/>
	<path fill="#323651" transform="scale(3.90625 3.90625)" d="M571.385 798.63L575.809 798.288L571.75 812.633C570.943 812.942 570.927 813.035 570.018 812.894L566.345 810.007L571.385 798.63Z"/>
	<path fill="#FDEA98" transform="scale(3.90625 3.90625)" d="M445.504 882.893C450.019 880.264 454.744 877.512 459.768 875.976L472.358 881.708C474.903 882.866 477.757 883.938 480.087 885.492L445.504 882.893Z"/>
	<path fill="#9DCF92" transform="scale(3.90625 3.90625)" d="M445.504 882.893L480.087 885.492C510.69 897.524 542.373 909.744 575.5 912.023C584 912.607 592.603 912.763 601 911.089C606.902 909.912 612.482 907.965 617.908 905.369C620.105 911.186 621.089 917.515 622.444 923.577C622.856 925.42 623.88 928.338 623.802 930.127C602.977 938.032 580.938 942.267 558.94 945.3C520.451 950.605 481.235 951.328 442.5 948.672C411.065 946.516 379.455 942.073 349.215 932.944L353.982 910.336C351.068 910.437 348.209 910.56 345.306 910.214L344.739 910.14C379.287 910.226 414.593 897.651 445.504 882.893Z"/>
	<path fill="#FDEA98" transform="scale(3.90625 3.90625)" d="M349.215 932.944C379.455 942.073 411.065 946.516 442.5 948.672C481.235 951.328 520.451 950.605 558.94 945.3C580.938 942.267 602.977 938.032 623.802 930.127L634.261 978.469L627.829 981.593L636.759 1024L339.591 1024L347.117 982.711C345.339 981.196 342.276 980.898 340.323 979.354L349.215 932.944Z"/>
	<path fill="#215A89" transform="scale(3.90625 3.90625)" d="M627.829 981.593L636.759 1024L339.591 1024L347.117 982.711L374.013 993.191C420.058 1008.07 468.883 1012.39 516.985 1008.72C540.538 1006.92 563.545 1003.48 586.322 997.057C600.555 993.041 614.642 988.342 627.829 981.593Z"/>
	<path fill="#9DCF92" transform="scale(3.90625 3.90625)" d="M464.551 628.002C485.079 631.21 506.793 632.937 527.5 630.975C531.849 630.563 536.454 630.353 540.69 629.225L540.742 640.839L540.497 641.615L541.384 651.317C552.691 652.218 563.789 654.591 574.831 657.076C577.913 657.769 581.582 658.209 584.467 659.473C587.702 659.482 590.92 660.678 594.049 661.435C606.958 664.56 619.711 668.9 632.041 673.815C634.021 674.526 638.225 675.586 639.419 677.328C620.956 688.892 606.059 702.431 595.232 721.603C592.933 725.672 590.497 729.998 588.878 734.389L586.578 740.36C583.574 749.592 581.623 758.353 579.737 767.85C579.605 768.511 579.708 769.391 579.076 769.754C578.294 770.203 577.412 770.104 576.54 770.12C575.021 772.213 574.582 775.028 573.901 777.496L570.365 789.948C572.253 793.729 572.469 794.338 571.385 798.63L566.345 810.007L570.018 812.894C565.811 814.746 561.382 816.056 557.109 817.75L525.992 831.812L500.633 846.089L453.546 871.016C442.658 876.428 431.296 881.06 420 885.539C397.382 894.505 372.502 903.3 348.058 904.785C339.552 905.302 330.097 904.894 322.065 901.796C319.075 900.643 315.02 897.648 311.984 897.623C296.132 882.961 291.379 861.485 288.867 840.899L288.483 834.198C282.821 833.249 278.143 831.292 273.779 827.532C271.93 823.986 271.346 819.908 270.782 815.99C269.716 808.585 269.469 801.539 269.464 794.066C271.455 791.42 275.385 789.244 278.144 787.401C280.905 772.422 284.076 758.46 290.419 744.508C305.433 711.488 333.354 684.853 367.351 672.125C375.858 668.909 384.383 666.739 393.141 664.359C398.511 662.9 404.541 660.762 410.081 660.436L410.42 660.35C414.286 658.962 418.845 658.698 422.927 658.012C436.035 655.809 449.032 653.648 462.333 652.993L464.015 638.186L464.551 628.002Z"/>
	<path fill="#FDEA98" transform="scale(3.90625 3.90625)" d="M584.467 659.473C587.702 659.482 590.92 660.678 594.049 661.435C606.958 664.56 619.711 668.9 632.041 673.815L571.694 676.711L584.467 659.473Z"/>
	<path fill="#2D6D99" transform="scale(3.90625 3.90625)" d="M370.251 777.224C368.759 770.018 368.08 762.475 367.401 755.156C365.505 734.719 365.945 715.07 367.999 694.676C368.436 690.339 368.495 685.8 369.27 681.516C369.495 680.272 369.334 678.346 370.25 677.534L369.505 726.48C370.301 745.324 372.93 763.589 377.034 781.992L386.105 811.176L383.52 812.502C379.648 810.867 378.347 806.675 377.139 802.953L372.952 787.478C372.172 784.088 371.613 780.43 370.251 777.224Z"/>
	<path fill="#FDEA98" transform="scale(3.90625 3.90625)" d="M367.351 672.125C375.858 668.909 384.383 666.739 393.141 664.359C398.511 662.9 404.541 660.762 410.081 660.436C413.519 668.96 417.065 676.702 421.863 684.578C417.5 684.654 412.785 683.36 408.5 682.504C394.748 679.756 380.765 676.238 367.351 672.125Z"/>
	<path fill="#215A89" transform="scale(3.90625 3.90625)" d="M278.144 787.401C306.991 772.101 338.793 772.338 370.251 777.224C371.613 780.43 372.172 784.088 372.952 787.478L377.139 802.953C378.347 806.675 379.648 810.867 383.52 812.502C381.962 813.144 380.271 814.157 378.579 813.991L376.912 808.464C355.06 801.651 328.912 803.039 307.164 809.438C301.028 811.243 294.734 813.29 289.043 816.235L287.526 817.076L288.483 834.198C282.821 833.249 278.143 831.292 273.779 827.532C271.93 823.986 271.346 819.908 270.782 815.99C269.716 808.585 269.469 801.539 269.464 794.066C271.455 791.42 275.385 789.244 278.144 787.401Z"/>
	<path fill="#323651" transform="scale(3.90625 3.90625)" d="M287.526 817.076L288.483 834.198C282.821 833.249 278.143 831.292 273.779 827.532L287.526 817.076Z"/>
	<path fill="#2D6D99" transform="scale(3.90625 3.90625)" d="M464.551 628.002C485.079 631.21 506.793 632.937 527.5 630.975C531.849 630.563 536.454 630.353 540.69 629.225L540.742 640.839L540.497 641.615L541.384 651.317C552.691 652.218 563.789 654.591 574.831 657.076C577.913 657.769 581.582 658.209 584.467 659.473L571.694 676.711C567.127 682.014 562.339 687.466 557.035 692.038C538.37 708.129 514.917 718.396 490.312 720.271C469.158 721.883 451.145 714.487 435.372 700.76C430.043 696.122 425.914 690.318 421.863 684.578C417.065 676.702 413.519 668.96 410.081 660.436L410.42 660.35C414.286 658.962 418.845 658.698 422.927 658.012C436.035 655.809 449.032 653.648 462.333 652.993L464.015 638.186L464.551 628.002Z"/>
	<path fill="#F7C493" transform="scale(3.90625 3.90625)" d="M458.004 680.102C460.923 678.574 465.087 678.331 468.332 677.611C472.417 676.704 476.445 675.509 480.424 674.22C494.417 669.688 507.226 662.683 519.801 655.165C526.834 650.96 534.038 646.676 540.497 641.615L541.384 651.317L541.624 652.03C542.852 655.581 544.413 657.688 547.009 660.359C544.908 664.805 541.748 668.145 538.221 671.519C529.908 679.47 520.03 685.854 509.167 689.711C496.132 694.339 481.742 693.489 469.329 687.447C465.296 685.483 461.369 683.083 458.004 680.102Z"/>
	<path fill="#E89371" transform="scale(3.90625 3.90625)" d="M464.551 628.002C485.079 631.21 506.793 632.937 527.5 630.975C531.849 630.563 536.454 630.353 540.69 629.225L540.742 640.839L540.497 641.615C534.038 646.676 526.834 650.96 519.801 655.165C507.226 662.683 494.417 669.688 480.424 674.22C476.445 675.509 472.417 676.704 468.332 677.611C465.087 678.331 460.923 678.574 458.004 680.102C454.321 676.887 451.731 673.289 449.017 669.259C454.66 665.022 460.842 660.923 462.231 653.565L462.333 652.993L464.015 638.186L464.551 628.002Z"/>
	<path fill="#FDEA98" transform="scale(3.90625 3.90625)" d="M369.505 726.48L371.477 727.06C425.578 744.213 481.874 747.294 538.108 741.634L571.538 737.089C577.047 736.195 583.327 734.32 588.878 734.389L586.578 740.36C583.574 749.592 581.623 758.353 579.737 767.85C579.605 768.511 579.708 769.391 579.076 769.754C578.294 770.203 577.412 770.104 576.54 770.12C575.021 772.213 574.582 775.028 573.901 777.496L570.365 789.948C572.253 793.729 572.469 794.338 571.385 798.63L566.345 810.007C557.618 804.014 547.853 800.398 537.682 797.624C534.623 796.79 530.613 796.813 527.938 795.175L504.958 793.111C489.977 792.292 474.64 793.266 459.783 795.25C456.409 795.701 451.036 795.869 447.957 797.262C446.031 798.151 444.102 798.401 442.028 798.733C436.665 797.444 430.429 799.127 425.077 800.18C411.773 802.799 398.698 806.084 386.105 811.176L377.034 781.992C372.93 763.589 370.301 745.324 369.505 726.48Z"/>
	<path fill="#D9E18A" transform="scale(3.90625 3.90625)" d="M369.505 726.48L371.477 727.06C372.101 736.506 373.155 745.816 375.292 755.059C377.317 763.818 380.549 773.311 381.235 782.262C379.838 781.932 378.463 782.003 377.034 781.992C372.93 763.589 370.301 745.324 369.505 726.48Z"/>
	<path fill="#D9E18A" transform="scale(3.90625 3.90625)" d="M546.01 793.13C549.355 790.74 552.964 788.903 556.166 786.26C562.518 781.018 567.706 774.285 572.348 767.537C574.862 763.882 577.388 760.313 579.269 756.275C581.414 751.669 582.146 746.407 584.499 741.917C585.155 740.664 585.273 740.73 586.578 740.36C583.574 749.592 581.623 758.353 579.737 767.85C579.605 768.511 579.708 769.391 579.076 769.754C578.294 770.203 577.412 770.104 576.54 770.12C575.021 772.213 574.582 775.028 573.901 777.496L570.365 789.948C568.649 790.876 566.593 790.579 564.692 790.845C558.624 791.696 552.141 793.192 546.01 793.13Z"/>
	<path fill="#9DCF92" transform="scale(3.90625 3.90625)" d="M546.01 793.13C552.141 793.192 558.624 791.696 564.692 790.845C566.593 790.579 568.649 790.876 570.365 789.948C572.253 793.729 572.469 794.338 571.385 798.63L566.345 810.007C557.618 804.014 547.853 800.398 537.682 797.624C534.623 796.79 530.613 796.813 527.938 795.175L546.01 793.13Z"/>
	<path fill="#9DCF92" transform="scale(3.90625 3.90625)" d="M377.034 781.992C378.463 782.003 379.838 781.932 381.235 782.262C382.955 783.836 387.021 784.26 389.298 784.925C401.935 788.614 414.647 791.835 427.62 794.112C434.345 795.292 441.313 795.648 447.957 797.262C446.031 798.151 444.102 798.401 442.028 798.733C436.665 797.444 430.429 799.127 425.077 800.18C411.773 802.799 398.698 806.084 386.105 811.176L377.034 781.992Z"/>
	<path fill="#F7C493" transform="scale(3.90625 3.90625)" d="M447.957 797.262C451.036 795.869 456.409 795.701 459.783 795.25C474.64 793.266 489.977 792.292 504.958 793.111L527.938 795.175C530.613 796.813 534.623 796.79 537.682 797.624C547.853 800.398 557.618 804.014 566.345 810.007L570.018 812.894C565.811 814.746 561.382 816.056 557.109 817.75L525.992 831.812L500.633 846.089L453.546 871.016C442.658 876.428 431.296 881.06 420 885.539C397.382 894.505 372.502 903.3 348.058 904.785C339.552 905.302 330.097 904.894 322.065 901.796C319.075 900.643 315.02 897.648 311.984 897.623C296.132 882.961 291.379 861.485 288.867 840.899L288.483 834.198L287.526 817.076L289.043 816.235C294.734 813.29 301.028 811.243 307.164 809.438C328.912 803.039 355.06 801.651 376.912 808.464L378.579 813.991C380.271 814.157 381.962 813.144 383.52 812.502L386.105 811.176C398.698 806.084 411.773 802.799 425.077 800.18C430.429 799.127 436.665 797.444 442.028 798.733C444.102 798.401 446.031 798.151 447.957 797.262Z"/>
	<path fill="#E89371" transform="scale(3.90625 3.90625)" d="M386.105 811.176C398.698 806.084 411.773 802.799 425.077 800.18C430.429 799.127 436.665 797.444 442.028 798.733C432.618 802.294 422.601 804.566 412.992 807.591C381.527 817.496 349.247 829.627 323.959 851.573C319.414 855.518 315.381 860.103 311.383 864.59C314.621 849.709 329.147 836.981 341.5 829.008L362.804 817.063C345.178 816.844 326.272 818.1 310.12 825.98C302.236 829.826 295.34 835.036 288.867 840.899L288.483 834.198L287.526 817.076L289.043 816.235C294.734 813.29 301.028 811.243 307.164 809.438C328.912 803.039 355.06 801.651 376.912 808.464L378.579 813.991C380.271 814.157 381.962 813.144 383.52 812.502L386.105 811.176Z"/>
	<path fill="#803A2C" transform="scale(3.90625 3.90625)" d="M217.106 308.68C218.099 295.476 220.35 282.338 224.512 269.75C233.442 242.741 250.662 218.527 271.25 199.07C297.015 174.721 332.244 155.769 367.3 149.432C379.334 147.257 391.233 146.697 403.429 147.046L403.542 140.336C404.993 118.737 416.213 100.784 432.208 86.7739C456.7 65.32 489.583 55.1198 521.5 52.3611C528.146 51.7867 535.033 51.1218 541.699 51.5369L537.235 54.138C517.706 66.0605 502.879 86.024 492.512 106.058C489.196 112.465 485.699 119.731 484.017 126.763C494.938 108.56 511.015 95.767 530.028 86.6352C576.195 64.4621 629.03 71.2856 675.787 87.7115C647.073 90.7717 621.598 109.693 601.798 129.504C620.436 118.275 642.784 116.196 664.109 116.453C695.511 116.831 730.881 128.009 756.072 146.956C761.348 150.923 765.994 155.557 770.596 160.265C772.524 162.23 774.556 164.144 776.247 166.319C766.376 165.628 757.012 165.781 747.168 166.575C731.975 168.408 715.254 172.993 702.455 181.672C743.073 188.328 781.216 211.267 805.226 244.876C816.297 260.375 824.871 279.062 829.306 297.598C831.195 305.493 832.138 313.53 833.213 321.563C832.423 320.743 827.486 316.131 827.404 315.5L794.098 284.481C796.88 294.719 800.239 304.51 802.128 314.996C804.114 326.023 804.692 337.121 804.932 348.302C805.612 379.981 800.634 410.155 786.99 438.908C782.073 437.532 776.077 437.561 771.06 438.323L770.25 438.455C760.624 439.93 748.72 444.497 742.25 452.02C740.442 454.122 739.511 457.436 738.519 460L732.848 473.921C724.466 492.274 715.738 510.563 703.479 526.707C706.298 518.301 711.086 510.447 714.106 501.978C725.819 469.127 731.221 435.367 730.54 400.549C730.477 397.334 730.326 382.906 728.944 380.583C728.897 380.504 726.512 379.746 726.284 379.667C719.432 377.288 712.797 374.477 706.252 371.351C692.434 364.75 678.962 355.381 667.963 344.699C644.865 322.266 633.841 293.604 633.373 261.81C622.514 271.51 611.487 280.7 599.154 288.514C580.808 300.138 559.176 308.519 537.926 312.931C518.741 316.914 498.487 318.878 478.913 317.337C471.007 316.715 463.104 315.27 455.321 313.776C439.232 310.686 423.915 305.92 410.127 296.861C417.985 295.852 425.56 293.189 432.891 290.26C457.254 280.524 477.902 265.006 494.756 245.029C485.698 250.184 476.542 255.146 466.995 259.35C450.622 266.559 432.849 272.063 415.548 276.602C400.582 280.528 385.203 283.148 370 285.986C361.679 287.539 353.097 288.647 344.956 290.993C331.622 294.836 319.17 302.508 309.222 312.132C303.107 318.048 297.945 324.935 293.294 332.037C274.62 360.551 268.882 392.661 268.466 426.197C263.446 416.984 257.628 407.222 249.272 400.624C241.332 394.355 232.754 393.057 222.913 394.226C218.017 365.874 214.411 337.481 217.106 308.68Z"/>
	<path fill="#692D26" transform="scale(3.90625 3.90625)" d="M747.168 166.575L746.459 166.03C740.639 161.926 697.425 159.966 688.5 160.127C680.523 160.27 672.763 161.055 664.865 162.17C683.54 151.128 707.139 149.304 728.363 150.901C734.466 151.361 740.638 151.752 746.604 153.216C750.89 154.267 755.112 155.392 759.29 156.832C762.887 158.072 766.134 160.091 770.012 160.257L770.596 160.265C772.524 162.23 774.556 164.144 776.247 166.319C766.376 165.628 757.012 165.781 747.168 166.575Z"/>
	<path fill="#692D26" transform="scale(3.90625 3.90625)" d="M217.106 308.68L217.43 308.384C219.756 306.108 220.919 299.239 222.096 295.953L227.896 281.401C243.279 247.287 270.65 219.106 304.482 203.104C316.253 197.536 328.417 193.776 341.07 190.841C318.901 201.86 296.857 216.461 280.386 235.154C267.831 249.404 258.494 266.074 252.488 284.062C246.911 300.765 244.95 318.132 246.186 335.651C251.122 320.183 258.015 304.267 266.724 290.519C283.296 264.361 308.712 240.882 336.274 226.708C359.404 214.813 385.746 207.998 411.423 204.466L385.426 214.862C374.574 219.682 364.22 225.423 354.09 231.606C345.762 236.689 337.552 241.737 329.868 247.784C321.386 254.459 313.786 262.218 306.787 270.411C331.522 256.865 358.867 252.101 386.175 246.569C422.525 239.206 459.786 229.347 490.75 208.018C503.756 199.059 516.647 187.569 526.034 174.849C528.789 171.117 531.227 167.209 533.562 163.204C534.453 161.675 535.676 158.611 537.007 157.569C539.085 193.293 526.935 227.543 503.127 254.256C493.102 265.505 481.146 274.598 468.491 282.664L457.707 289.281C455.928 290.339 453.475 291.389 452.09 292.892C465.544 292.435 478.736 292.824 492.186 291.376C543.049 285.9 598.639 265.882 634.057 227.649C639.369 221.915 644.242 215.601 648.393 208.983C649.285 207.561 651.941 201.854 653.139 201.139C652.104 212.329 651.031 223.613 651.551 234.859C652.794 261.743 662.683 289.139 679.871 309.827C689.502 321.419 701.952 330.212 714.784 337.902C713.829 330.463 713.076 322.963 711.623 315.601C709.101 302.813 705.059 289.829 700.273 277.701C698.428 273.025 696.175 268.537 694.02 264C692.983 261.818 691.578 259.433 690.901 257.126C695.063 261.577 698.2 267.012 701.774 271.93L716.606 292.986C727.211 309.648 736.41 327.689 744.243 345.821L754.528 370.649C756.241 374.711 757.789 379.003 760.018 382.809C767.591 365.93 771.355 347.916 773.388 329.617C776.823 298.712 775.295 266.831 764.164 237.509L763.885 236.775C789.537 252.637 806.684 273.992 820.42 300.482C822.592 304.67 826.091 309.609 827.308 314.089C827.477 314.712 827.41 314.713 827.404 315.5L794.098 284.481C796.88 294.719 800.239 304.51 802.128 314.996C804.114 326.023 804.692 337.121 804.932 348.302C805.612 379.981 800.634 410.155 786.99 438.908C782.073 437.532 776.077 437.561 771.06 438.323L770.25 438.455C760.624 439.93 748.72 444.497 742.25 452.02C740.442 454.122 739.511 457.436 738.519 460L732.848 473.921C724.466 492.274 715.738 510.563 703.479 526.707C706.298 518.301 711.086 510.447 714.106 501.978C725.819 469.127 731.221 435.367 730.54 400.549C730.477 397.334 730.326 382.906 728.944 380.583C728.897 380.504 726.512 379.746 726.284 379.667C719.432 377.288 712.797 374.477 706.252 371.351C692.434 364.75 678.962 355.381 667.963 344.699C644.865 322.266 633.841 293.604 633.373 261.81C622.514 271.51 611.487 280.7 599.154 288.514C580.808 300.138 559.176 308.519 537.926 312.931C518.741 316.914 498.487 318.878 478.913 317.337C471.007 316.715 463.104 315.27 455.321 313.776C439.232 310.686 423.915 305.92 410.127 296.861C417.985 295.852 425.56 293.189 432.891 290.26C457.254 280.524 477.902 265.006 494.756 245.029C485.698 250.184 476.542 255.146 466.995 259.35C450.622 266.559 432.849 272.063 415.548 276.602C400.582 280.528 385.203 283.148 370 285.986C361.679 287.539 353.097 288.647 344.956 290.993C331.622 294.836 319.17 302.508 309.222 312.132C303.107 318.048 297.945 324.935 293.294 332.037C274.62 360.551 268.882 392.661 268.466 426.197C263.446 416.984 257.628 407.222 249.272 400.624C241.332 394.355 232.754 393.057 222.913 394.226C218.017 365.874 214.411 337.481 217.106 308.68Z"/>
	<path fill="#F7C493" transform="scale(3.90625 3.90625)" d="M222.913 394.226C232.754 393.057 241.332 394.355 249.272 400.624C257.628 407.222 263.446 416.984 268.466 426.197C268.882 392.661 274.62 360.551 293.294 332.037C297.945 324.935 303.107 318.048 309.222 312.132C319.17 302.508 331.622 294.836 344.956 290.993C353.097 288.647 361.679 287.539 370 285.986C385.203 283.148 400.582 280.528 415.548 276.602C432.849 272.063 450.622 266.559 466.995 259.35C476.542 255.146 485.698 250.184 494.756 245.029C477.902 265.006 457.254 280.524 432.891 290.26C425.56 293.189 417.985 295.852 410.127 296.861C423.915 305.92 439.232 310.686 455.321 313.776C463.104 315.27 471.007 316.715 478.913 317.337C498.487 318.878 518.741 316.914 537.926 312.931C559.176 308.519 580.808 300.138 599.154 288.514C611.487 280.7 622.514 271.51 633.373 261.81C633.841 293.604 644.865 322.266 667.963 344.699C678.962 355.381 692.434 364.75 706.252 371.351C712.797 374.477 719.432 377.288 726.284 379.667C726.512 379.746 728.897 380.504 728.944 380.583C730.326 382.906 730.477 397.334 730.54 400.549C731.221 435.367 725.819 469.127 714.106 501.978C711.086 510.447 706.298 518.301 703.479 526.707C715.738 510.563 724.466 492.274 732.848 473.921L738.519 460C739.511 457.436 740.442 454.122 742.25 452.02C748.72 444.497 760.624 439.93 770.25 438.455L771.06 438.323C776.077 437.561 782.073 437.532 786.99 438.908C798.174 442.995 805.55 449.21 810.636 460.082C817.823 475.446 817.714 494.19 811.95 510.001C806.646 524.55 796.522 536.534 782.312 543.02C765.818 550.549 744.896 551.595 727.664 546.413C722.792 553.466 716.193 559.752 710.112 565.75C670.178 605.139 616.525 626.69 562.087 636.626L540.742 640.839L540.69 629.225C536.454 630.353 531.849 630.563 527.5 630.975C506.793 632.937 485.079 631.21 464.551 628.002L464.015 638.186L413.003 626.933C375.507 616.115 337.219 597.756 307.785 571.807C288.384 554.703 272.86 534.698 260.419 512.079C244.459 510.591 229.717 506.725 216.368 497.534C201.382 487.217 191.979 473.945 188.335 456C185.522 442.146 187.895 427.336 194.77 415.003C198.437 408.426 203.981 402.012 210.75 398.506C214.617 396.504 218.742 395.391 222.913 394.226Z"/>
	<path fill="#692D26" transform="scale(3.90625 3.90625)" d="M468.266 433.65L472.046 433.649C476.358 433.843 482.302 435.943 485.077 439.465C486.025 440.669 486.374 441.275 486.125 442.75C485.528 443.252 484.142 444.683 483.25 444.327C482.905 444.19 481.764 442.869 481.411 442.538C478.52 439.826 475.238 438.441 471.25 438.314C465.234 438.123 459.622 439.96 455.379 444.363C453.17 446.656 451.357 449.79 451.436 453.042C451.518 456.49 453.108 458.375 455.573 460.617C457.465 461.731 459.525 462.709 461.648 463.302C463.792 463.9 466.694 463.872 468.25 465.575C468.512 466.656 468.579 467.102 468.149 468.139C467.692 468.429 467.608 468.527 467 468.657C463.553 469.394 457.138 467.056 454.25 465.395C450.792 463.406 448.039 459.986 447.226 456.036C446.28 451.445 447.738 447.136 450.431 443.415C454.804 437.372 461.125 434.75 468.266 433.65Z"/>
	<path fill="#692D26" transform="scale(3.90625 3.90625)" d="M415.582 487.158L413.75 486.031C411.331 487.466 412.283 488.559 409.157 488.324L408.004 487.25C408.009 484.005 410.176 482.28 412.255 480.059C436.229 491.425 460.634 496.33 487 498.024C506.881 499.301 527.881 498.829 546.855 492.071C548.963 491.32 551.043 490.403 553.294 490.25C554.598 491.462 554.625 491.496 554.923 493.25C553.283 495.504 549.166 496.339 546.539 497.1C530.079 501.993 514.61 503.242 497.548 503.103C469.54 502.873 441.538 497.867 415.582 487.158Z"/>
	<path fill="#692D26" transform="scale(3.90625 3.90625)" d="M375.273 305.694C383.749 304.962 394.504 307.871 401.448 312.837C405.569 315.783 409.358 319.966 410.09 325.179C410.474 327.92 409.84 331.085 408.066 333.25C405.758 336.066 402.514 336.861 399 336.524C396.121 336.247 392.885 334.357 390.098 333.461C381.742 330.773 373.093 330.092 364.372 330.718C357.425 331.667 351.125 333.424 344.669 336.15C341.883 337.326 338.893 339.045 336 339.872C334.367 340.338 333.661 340.014 332.25 339.213C331.649 338.297 331.279 337.7 331.084 336.591C330.582 333.751 333.887 329.447 335.613 327.318C345.933 314.593 358.953 307.331 375.273 305.694Z"/>
	<path fill="#692D26" transform="scale(3.90625 3.90625)" d="M608.791 324.622C611.957 324.788 615.054 324.279 618.236 324.749L619 324.872C625.241 325.823 630.599 327.652 636.124 330.688C650.369 338.514 662.862 354.426 667.048 370.193C667.468 371.776 667.886 373.816 666.75 375.194C665.869 376.261 664.779 376.38 663.5 376.436C660.769 375.031 658.237 371.44 656.155 369.131C644.038 357.863 626.969 350.829 610.465 349.721C605.715 349.402 597.917 350.265 593.794 347.694C591.341 346.163 589.745 343.509 589.271 340.689C588.903 338.498 589.182 336.413 590.499 334.585C594.862 328.531 601.742 325.94 608.791 324.622Z"/>
	<path fill="#D76253" transform="scale(3.90625 3.90625)" d="M772.815 465.184C777.246 464.697 782.69 465.931 786.454 468.299C793.45 472.699 795.986 479.01 797.705 486.708L792.79 481.037C788.003 476.527 781.608 475.021 775.211 475.273C765.816 475.643 759.682 479.256 753.391 486.027C760.363 485.881 766.007 486.425 771.958 490.532C777.47 494.336 779.914 499.395 781.07 505.799C780.709 508.315 780.455 510.66 779.335 512.969C776.828 518.137 772.047 521.356 766.75 523.223C760.401 525.46 753.17 526.076 747 522.978C742.499 520.718 739.061 516.498 737.528 511.725L737.329 511.085C736.989 510.046 736.696 509.095 736.563 508C735.499 499.261 739.368 488.51 744.762 481.681C751.633 472.983 761.715 466.426 772.815 465.184Z"/>
	<path fill="#D76253" transform="scale(3.90625 3.90625)" d="M224.073 422.617C232.324 422.027 239.849 423.183 246.824 427.943C261.116 437.699 266.441 456.576 269.198 472.75C269.796 476.258 270.364 477.468 268.044 480.5C264.124 485.625 257.61 488.489 251.322 489.267C242.583 490.348 235.355 487.286 228.637 481.931C224.497 477.8 221.713 472.17 221.6 466.25C221.503 461.182 223.709 456.025 227.047 452.29C232.998 445.632 240.409 443.966 248.918 443.469C246.892 440.874 244.631 438.374 241.906 436.493C234.199 431.174 223.768 428.655 214.525 430.331L213.75 430.478C209.828 431.18 206.676 432.537 203.192 434.386C209.912 428.282 215.113 424.49 224.073 422.617Z"/>
	<path fill="#692D26" transform="scale(3.90625 3.90625)" d="M540.69 629.225C584.456 625.048 627.761 608.894 663.171 582.742C681.328 569.332 697.268 553.652 712.293 536.868C716.653 540.447 721.917 544.26 727.233 546.257L727.664 546.413C722.792 553.466 716.193 559.752 710.112 565.75C670.178 605.139 616.525 626.69 562.087 636.626L540.742 640.839L540.69 629.225Z"/>
	<path fill="#FFFEFE" transform="scale(3.90625 3.90625)" d="M415.582 487.158C441.538 497.867 469.54 502.873 497.548 503.103C514.61 503.242 530.079 501.993 546.539 497.1C545.002 502.066 542.994 506.625 539.905 510.841C530.073 524.266 512.735 532.555 496.484 534.846C475.448 537.813 458.045 533.753 441.173 520.871C432.261 514.066 424.351 504.094 418.851 494.394C417.585 492.163 415.921 489.714 415.582 487.158Z"/>
	<path fill="#E89371" transform="scale(3.90625 3.90625)" d="M319.852 451.162C324.707 450.737 329.626 450.65 334.481 451.142C347.083 452.42 363.027 459.7 371.097 469.676L371.639 470.362C373.988 473.292 375.819 476.513 376.613 480.224C377.523 484.479 376.286 488.733 373.836 492.248C369.176 498.932 361.62 501.931 353.904 503.412C349.181 504.343 343.112 504.371 338.345 503.678C328.445 502.238 319.071 499.162 310.815 493.372C304.944 489.255 297.609 481.621 296.597 474.25C295.976 469.723 296.691 464.956 299.541 461.25C304.528 454.764 312.055 452.285 319.852 451.162Z"/>
	<path fill="#692D26" transform="scale(3.90625 3.90625)" d="M260.419 512.079C263.457 512.061 266.665 512.303 269.523 511.152L270.259 510.86C272.186 510.067 274.103 509.027 275.75 507.745C277.045 506.736 278.042 505.3 279.487 504.526C284.725 514.794 290.174 524.913 296.862 534.327C325.455 574.578 368.504 601.468 415 616.53L464.551 628.002L464.015 638.186L413.003 626.933C375.507 616.115 337.219 597.756 307.785 571.807C288.384 554.703 272.86 534.698 260.419 512.079Z"/>
	<path fill="#E89371" transform="scale(3.90625 3.90625)" d="M636.627 468.688C641.074 468.287 645.81 468.104 650.232 468.788L654.5 469.473C664.149 471.458 675.345 476.878 680.75 485.396C683.606 489.898 685.549 495.555 684.231 500.919L684.075 501.5C683.381 504.142 682.491 506.427 680.958 508.707C674.306 518.596 662.867 522.702 651.702 524.908C642.007 526.71 631.043 525.667 622.17 521.262C614.604 517.506 608.186 510.971 605.561 502.815L605.334 502.089C605.012 501.124 604.714 500.268 604.578 499.25C603.769 493.18 605.625 487.368 609.305 482.549C616.226 473.485 625.77 470.16 636.627 468.688Z"/>
	<path fill="#FFFEFE" transform="scale(3.90625 3.90625)" d="M382.325 371.191C391.506 370.374 400.588 373.244 408.093 378.488C416.767 384.549 422.157 393.352 423.868 403.723C425.436 413.222 423.773 423.345 418.128 431.262C411.157 441.039 400.724 446.44 389.037 448.407C378.635 449.473 369.441 447.132 361.053 440.71C353.124 434.639 347.411 424.352 346.103 414.499C344.756 404.362 347.954 394.231 354.256 386.26C361.473 377.132 370.924 372.545 382.325 371.191Z"/>
	<path fill="#323651" transform="scale(3.90625 3.90625)" d="M386.181 383.168C393.15 382.679 399.706 383.978 405.661 387.694C412.314 391.845 417.513 399.558 419.081 407.21C420.763 415.417 418.91 423.603 414.263 430.504C408.786 438.639 401.09 442.649 391.627 444.519C388.681 444.796 385.784 444.774 382.843 444.425C375.753 443.583 368.301 439.063 363.967 433.433C359.29 427.359 356.273 419.343 357.302 411.606L357.427 410.75C358.175 405.131 360.21 399.478 363.748 394.998C369.414 387.822 377.221 384.276 386.181 383.168Z"/>
	<path fill="#FFFEFE" transform="scale(3.90625 3.90625)" d="M374.911 390.149C377.264 390.3 379.576 390.432 381.741 391.455C385.2 393.091 387.625 396.394 388.762 399.984C389.831 403.356 389.336 406.795 387.532 409.83C385.475 413.289 382.171 415.008 378.437 416.094C375.243 416.189 372.518 416.269 369.632 414.639C366.592 412.922 363.732 408.64 363.079 405.25C362.454 402.003 363.58 398.613 365.365 395.913C367.904 392.071 370.561 390.999 374.911 390.149Z"/>
	<path fill="#FFFEFE" transform="scale(3.90625 3.90625)" d="M598.628 390.652C608.374 389.688 618.708 391.763 626.754 397.544C635.238 403.638 640.954 412.767 642.659 423.089C644.413 433.709 641.695 445.352 635.32 454.068C628.281 463.693 619.641 468.203 608.001 470.161C598.143 470.928 588.059 468.938 579.75 463.415C571.469 457.91 565.681 447.893 563.918 438.209C561.979 427.555 564.517 416.74 570.694 407.87C577.387 398.259 587.224 392.645 598.628 390.652Z"/>
	<path fill="#323651" transform="scale(3.90625 3.90625)" d="M602.749 402.611C610.324 402.096 618.123 404.175 624.391 408.476C632.125 413.785 636.731 422.012 638.283 431.2C639.426 437.965 637.24 445.383 633.225 450.848C627.967 458.005 620.513 461.905 611.872 463.196C604.155 463.734 596.626 462.306 590.033 458.178C582.4 453.399 577.544 445.605 575.821 436.838C574.357 429.385 576.335 421.724 580.618 415.564C586.016 407.799 593.655 404.28 602.749 402.611Z"/>
	<path fill="#FFFEFE" transform="scale(3.90625 3.90625)" d="M594.586 407.679C597.328 407.89 599.657 408.216 602.031 409.732C605.074 411.677 607.022 414.876 607.71 418.389C608.341 421.614 607.731 425.183 605.806 427.898C603.227 431.537 600.007 432.567 595.846 433.204C593.181 433.01 589.988 432.406 587.75 430.849C584.663 428.702 582.947 425.235 582.39 421.59C581.892 418.334 582.466 415.479 584.483 412.857C587.246 409.265 590.248 408.195 594.586 407.679Z"/>
</svg>
