<?xml version="1.0" encoding="utf-8"?>
<!-- Generator: Adobe Illustrator 18.1.1, SVG Export Plug-In . SVG Version: 6.00 Build 0)  -->
<svg version="1.1" xmlns="http://www.w3.org/2000/svg" xmlns:xlink="http://www.w3.org/1999/xlink" x="0px" y="0px"
	 viewBox="0 0 32 32" enable-background="new 0 0 32 32" xml:space="preserve">
<g id="Guides">
</g>
<g id="_x32_0">
</g>
<g id="_x31_9">
</g>
<g id="_x31_8">
</g>
<g id="_x31_7">
</g>
<g id="_x31_6">
</g>
<g id="_x31_5">
</g>
<g id="_x31_4">
	<path d="M29,28H11.74646c2.5861816-1.6887817,4.5118408-4.3391113,5.2515869-7.5449219l1.953125-8.4609375
		C20.0371094,7.2871094,24.1699219,4,29,4c0.5527344,0,1-0.4472656,1-1s-0.4472656-1-1-1
		c-5.7675781,0-10.7011719,3.9248047-11.9980469,9.5449219l-1.953125,8.4609375C13.9628906,24.7128906,9.8300781,28,5,28H4V3
		c0-0.5527344-0.4472656-1-1-1S2,2.4472656,2,3v26c0,0.5527344,0.4472656,1,1,1h26c0.5527344,0,1-0.4472656,1-1S29.5527344,28,29,28
		z"/>
	<circle cx="22" cy="23" r="3"/>
	<circle cx="22" cy="16" r="3"/>
	<circle cx="26" cy="10" r="3"/>
	<circle cx="11" cy="20" r="3"/>
	<circle cx="13" cy="13" r="3"/>
	<circle cx="13" cy="6" r="3"/>
</g>
<g id="_x31_3">
</g>
<g id="_x31_2">
</g>
<g id="_x31_1">
</g>
<g id="_x31_0">
</g>
<g id="_x30_9">
</g>
<g id="_x30_8">
</g>
<g id="_x30_7">
</g>
<g id="_x30_6">
</g>
<g id="_x30_5">
</g>
<g id="_x30_4">
</g>
<g id="_x30_3">
</g>
<g id="_x30_2">
</g>
<g id="_x30_1">
</g>
</svg>
