<?xml version="1.0" encoding="utf-8" ?>
<svg xmlns="http://www.w3.org/2000/svg" xmlns:xlink="http://www.w3.org/1999/xlink" width="4000" height="4000">
	<path fill="#A1D8D7" transform="scale(3.90625 3.90625)" d="M-0 -0L1024 0L1024 1024L-0 1024L0 -0Z"/>
	<path fill="#F9E75D" transform="scale(3.90625 3.90625)" d="M225.271 163.25C226.078 163.106 226.927 162.949 227.75 162.975C229.205 163.02 230.428 163.809 231.34 164.897C233.16 167.069 233.378 169.743 232.916 172.467C232.501 174.915 231.166 176.548 229.25 178.007C228.762 178.171 228.273 178.365 227.75 178.395C226.55 178.464 225.057 177.794 224.25 176.903C222.243 174.687 221.712 171.426 222.082 168.556C222.399 166.094 223.292 164.696 225.271 163.25Z"/>
	<path fill="#F9E75D" transform="scale(3.90625 3.90625)" d="M167.922 222.102L168.701 222.031C171.805 221.789 175.895 221.544 178.311 223.855C179.955 225.428 179.918 226.645 179.93 228.75C178.782 230.545 177.683 231.238 175.845 232.279C173.986 232.782 172.188 233.083 170.25 232.989C168.358 232.898 166.128 231.938 164.95 230.428C163.647 228.759 163.825 227.206 164.1 225.25C165.039 223.495 166.192 222.993 167.922 222.102Z"/>
	<path fill="#F9E75D" transform="scale(3.90625 3.90625)" d="M191.398 177.25C192.438 177.015 193.585 176.694 194.631 177.053C197.121 177.909 199.002 180.348 200.168 182.584C201.546 185.229 202.105 187.352 201.25 190.234C200.185 191.589 199.352 191.965 197.75 192.555C197.021 192.582 196.225 192.648 195.5 192.5C193.227 192.033 190.668 189.041 189.357 187.293C188.095 185.612 187.087 183.509 187.661 181.357C188.225 179.242 189.645 178.308 191.398 177.25Z"/>
	<path fill="#4AB556" transform="scale(3.90625 3.90625)" d="M170.186 734.418C171.973 734.893 173.032 736.028 174.477 737.122C176.583 738.717 178.87 740.151 181.072 741.613C189.422 747.155 199.097 752.107 206.558 758.798L208.077 758.986L208.195 759.446L207.646 759.483C206.004 759.34 204.328 759.536 202.67 759.386C198.059 758.966 193.568 757.267 189.532 755.067C181.59 750.738 172.853 743.357 170.186 734.418Z"/>
	<path fill="#FFFEFE" transform="scale(3.90625 3.90625)" d="M169.994 387.571C171.587 387.49 173.202 387.599 174.75 388.009C177.098 388.632 179.567 390.733 180.704 392.858C181.941 395.169 182.232 397.919 181.337 400.399C180.104 403.813 177.618 405.274 174.505 406.813C172.927 406.986 171.556 406.973 170 406.601C167.073 405.9 164.697 403.922 163.282 401.293C162.123 399.139 162.098 396.454 162.934 394.179C164.217 390.686 166.762 389.026 169.994 387.571Z"/>
	<path fill="#075074" transform="scale(3.90625 3.90625)" d="M745.423 155.656C745.729 151.339 745.793 147.587 749.274 144.491C751.343 142.651 753.882 141.812 756.643 142.11C759.527 142.422 761.805 143.559 763.607 145.897C765.415 148.242 765.828 150.604 765.44 153.5C765.13 155.811 763.36 157.726 761.516 158.991C759.464 160.398 756.921 161.311 755.305 163.234C754.854 163.12 755.142 163.217 754.462 162.762L753.855 162.35L753.034 162.342L752.466 161.513L752.113 159.887L748.595 157.77C747.666 156.761 746.616 156.299 745.423 155.656Z"/>
	<path fill="#FFFEFE" transform="scale(3.90625 3.90625)" d="M886.664 281.064C888.19 281.138 889.934 281.179 891.38 281.698C893.904 282.604 896.102 285.003 897.212 287.394C898.422 289.999 898.648 292.811 897.538 295.5C896.282 298.542 893.703 300.112 890.764 301.251C888.646 301.321 886.231 301.353 884.296 300.395C881.618 299.07 880.125 296.897 879.164 294.144C878.339 291.78 878.728 288.294 879.886 286.088C881.39 283.219 883.74 282.112 886.664 281.064Z"/>
	<path fill="#F9F0CC" transform="scale(3.90625 3.90625)" d="M199.4 897.253L208.096 898.099C208.622 901.84 208.393 905.74 208.396 909.512L208.385 929.988L207.948 931.911C205.044 932.398 201.94 932.088 199.001 932.011C199.011 927.078 197.982 899.802 199.4 897.253Z"/>
	<path fill="#FFFEFE" transform="scale(3.90625 3.90625)" d="M882.247 391.278C885.446 397.939 884.904 403.153 892.6 406.309C895.029 407.306 897.789 407.733 900.077 408.997L891.834 411.609C890.823 412.026 889.002 412.715 888.199 413.448C886.271 415.207 884.595 421.221 883.556 423.75L882.514 425.25C880.452 424.375 880.184 416.307 878.099 414.181C875.35 411.376 870.91 411.48 867.75 409.482L867.621 408.563C869.957 406.345 873.463 406.267 876.25 404.755C879.973 402.735 881.082 395.113 882.247 391.278Z"/>
	<path fill="#FFFEFE" transform="scale(3.90625 3.90625)" d="M274.453 657.535C276.138 657.466 278.09 657.249 279.737 657.648C282.762 658.381 285.311 660.467 286.827 663.162C288.139 665.496 288.403 668.574 287.561 671.113C286.465 674.419 283.553 676.318 280.617 677.837C278.638 678.185 276.734 678.495 274.75 677.996C271.95 677.293 269.844 675.026 268.497 672.564C267.231 670.249 267.016 667.322 267.809 664.802C268.958 661.15 271.156 659.285 274.453 657.535Z"/>
	<path fill="#FFFEFE" transform="scale(3.90625 3.90625)" d="M764.812 523.75C766.495 523.443 768.225 523.338 769.89 523.778C773.133 524.636 775.646 526.38 777.344 529.296C778.784 531.768 779.34 535 778.567 537.779C777.564 541.385 775.162 543.061 772.067 544.781C770.205 545.056 767.747 545.237 765.9 544.761C762.916 543.992 760.699 541.826 759.292 539.158C757.827 536.382 757.833 532.781 758.824 529.844C759.842 526.828 762.071 525.099 764.812 523.75Z"/>
	<path fill="#096B3C" transform="scale(3.90625 3.90625)" d="M169.816 646.898L181.862 654.424C184.26 656.061 186.726 658.458 189.343 659.644L189.849 659.434L193.511 670.418C194.672 673.545 196.445 675.927 199.011 678.02C200.907 679.565 202.262 680.04 203.635 682.219C197.004 681.365 190.648 679.509 185.058 675.711C174.921 668.822 171.984 658.324 169.816 646.898Z"/>
	<path fill="#FFFEFE" transform="scale(3.90625 3.90625)" d="M375.473 108.75C376.167 108.607 376.077 108.471 376.6 108.822C379.065 110.473 380.472 118.596 381.313 121.543L389.667 123.707C391.456 124.314 392.443 124.757 393.306 126.485C391.178 129.073 386.498 129.495 383.478 130.701C382.886 130.937 381.362 131.418 380.951 131.846C380.188 132.64 379.843 134.649 379.573 135.681C378.841 138.479 378.059 141.088 376.93 143.75L375.792 143.878C373.971 141.651 372.936 137.412 372.159 134.591C372.027 134.114 371.645 131.843 371.406 131.608C371.165 131.371 369.256 130.91 368.862 130.786C366.308 129.982 360.896 128.853 359.237 126.687C361.394 122.369 367.261 123.562 370.557 121.161C370.707 121.052 371.332 118.876 371.428 118.596C372.573 115.24 373.496 111.727 375.473 108.75Z"/>
	<path fill="#4AB556" transform="scale(3.90625 3.90625)" d="M331.748 405.833L331.684 405.798L331.492 404.25C332.336 402.231 334.37 401.239 336.142 399.999L349.263 391.145L370.899 375.969C369.246 385.604 364.494 395.94 356.142 401.545C349.943 405.704 341.732 406.98 334.455 405.472L333.634 405.287C332.723 405.098 333.106 405.139 332.07 405.29L331.748 405.833Z"/>
	<path fill="#075074" transform="scale(3.90625 3.90625)" d="M758.675 187.207C758.857 183.377 759.06 181.069 761.97 178.25C764.471 175.828 767.878 174.285 771.399 174.561C774.782 174.825 777.714 176.375 779.886 178.982C782.372 181.967 782.853 185.23 782.457 188.984C782.171 191.695 780.031 194.445 777.907 196.026C775.042 198.157 771.281 199.033 767.75 198.434C764.261 197.842 762.704 195.653 760.945 192.859L759.638 190.727C759.177 189.617 758.962 188.375 758.675 187.207Z"/>
	<path fill="#075074" transform="scale(3.90625 3.90625)" d="M709.077 148.526C708.769 147.697 708.784 147.163 708.021 146.677C705.225 144.893 703.148 142.765 702.425 139.424C701.747 136.294 702.244 132.78 704.179 130.173C706.19 127.464 709.396 125.508 712.75 125.012C716.237 124.496 719.269 125.48 721.929 127.75C724.617 130.044 726.218 133.652 726.612 137.137C726.828 139.04 725.246 142.089 724.166 143.629C724.812 147.772 725.525 152.02 725.526 156.223C725.134 155.458 724.601 154.628 724.508 153.754L724.5 153.25L724.378 152C724.32 151.094 724.384 150.238 724.059 149.375L723.878 149C724.081 147.752 723.865 146.997 723.355 145.85L722.183 146.767C721.975 148.67 722.028 150.465 722.125 152.375L721.547 152.571L720.95 147.214C718.575 147.405 716.433 147.467 714.057 147.234L713.41 147.166C712.356 146.863 711.818 146.972 710.766 147.25L710.25 147.745L709.33 148.352L709.077 148.526Z"/>
	<path fill="#56ADC2" transform="scale(3.90625 3.90625)" d="M199.001 932.011C201.94 932.088 205.044 932.398 207.948 931.911L208.385 929.988L208.75 931.792L212.604 931.993L234.785 932.048C239.227 932.037 245.447 931.115 249.4 933.343L249.24 933.819C248.56 935.81 248.253 936.997 246.25 937.988L186.667 938.058L171.031 938.107C169.848 938.087 167.323 938.321 166.25 937.964C165.676 937.773 165.25 937.284 164.75 936.944C164.235 935.294 164.318 935.028 164.75 933.337C165.25 932.954 165.677 932.449 166.25 932.188C168.647 931.095 194.357 931.992 199.001 932.011Z"/>
	<path fill="#4AB556" transform="scale(3.90625 3.90625)" d="M252.115 344.946C254.765 345.206 257.317 346.753 259.856 347.632L272.303 351.354C286.52 355.22 300.381 357.667 314.987 359.524C314.462 360.193 313.961 360.709 313.287 361.238C306.781 366.353 296.501 368.727 288.385 367.67L287.5 367.544L283.75 366.943C272.471 364.344 258.284 354.592 252.115 344.946Z"/>
	<path fill="#0C5547" transform="scale(3.90625 3.90625)" d="M223.263 650.484C224.614 654.232 225.506 657.776 226.175 661.692C232.939 654.687 241.102 650.028 249.099 644.602C248.331 655.398 244.201 665.829 235.861 672.987C229.204 678.699 221.063 681.304 212.501 682.466L211.695 680.696C216.519 676.027 221.236 668.825 222.38 662.093C223.022 658.311 222.772 654.326 223.263 650.484Z"/>
	<path fill="#56ADC2" transform="scale(3.90625 3.90625)" d="M826.938 931.498L829.935 931.45L851.095 931.321C857.111 931.23 881.479 929.849 885.159 931.833C886.368 933.407 886.445 933.368 886.357 935.485C885.35 936.82 884.732 937.598 883 937.903C880.661 938.314 877.711 937.994 875.299 937.981L860.94 937.976L813.725 937.948L798.942 937.913C795.862 937.897 792.692 938.13 789.71 937.289C788.316 935.493 788.236 934.567 788.057 932.336C791.577 930.522 797.654 931.397 801.628 931.406L826.938 931.498Z"/>
	<path fill="#FFFEFE" transform="scale(3.90625 3.90625)" d="M809.652 83.25C811.502 84.6715 812.512 90.6025 813.498 93C814.48 95.3852 815.799 97.7064 817.5 99.6562C820.036 102.564 823.9 103.911 827.448 105.11C829.333 105.746 831.333 106.133 832.825 107.502C831.602 109.2 825.497 110.014 823.228 111.021L822.479 111.362C812.694 115.722 813.913 123.405 810.25 131.648L809.596 131.771C808.374 130.555 808.128 128.5 807.671 126.871C806.945 124.277 806.101 121.62 804.882 119.215C800.975 111.512 793.075 110.325 785.633 107.859C791.141 105.882 798.182 104.387 802.281 100.026C804.521 97.6437 805.929 94.1223 806.931 91.0438C807.785 88.4205 808.086 85.5646 809.652 83.25Z"/>
	<path fill="#087990" transform="scale(3.90625 3.90625)" d="M374.578 515.522C379.07 516.095 396.084 516.484 398.457 518.663C402.395 521.414 409.157 522.836 413.807 524.471C398.065 533.708 381.849 540.94 364.557 546.794C365.119 542.811 367.409 535.023 369.579 531.733C370.328 530.52 370.729 528.437 371.164 527.047L374.578 515.522Z"/>
	<defs>
		<linearGradient id="gradient_0" gradientUnits="userSpaceOnUse" x1="381.49158" y1="532.48376" x2="385.48187" y2="515.62836">
			<stop offset="0" stop-color="#C6D5DE"/>
			<stop offset="1" stop-color="#A7DEE3"/>
		</linearGradient>
	</defs>
	<path fill="url(#gradient_0)" transform="scale(3.90625 3.90625)" d="M374.578 515.522C379.07 516.095 396.084 516.484 398.457 518.663C390.237 524.423 379.095 528.694 369.579 531.733C370.328 530.52 370.729 528.437 371.164 527.047L374.578 515.522Z"/>
	<path fill="#4AB556" transform="scale(3.90625 3.90625)" d="M328.014 256.396C329.648 259.418 330.475 262.837 331.315 266.15C333.599 275.158 334.972 285.752 332.272 294.816C329.716 303.397 323.161 310.809 315.25 314.887C312.043 316.54 308.886 317.331 305.486 318.424C305.882 315.569 307.579 312.395 308.494 309.585L323.895 266.064C324.881 263.497 325.947 258.238 328.014 256.396Z"/>
	<path fill="#FFFEFE" transform="scale(3.90625 3.90625)" d="M155.457 520.728C158.072 528.177 157.985 536.765 162.656 543.415C165.758 547.832 170.53 548.419 175.436 549.684L188.233 552.52C182.707 553.486 177.182 554.46 171.753 555.89C169.625 556.451 166.859 556.979 165.036 558.225C159.708 561.867 157.568 575.107 156.25 581.032L155.815 582.359C154.947 581.841 155.064 581.298 154.819 580.342C153.355 574.633 152.334 566.339 149.068 561.435C145.286 555.757 131.638 553.968 125.068 552.523C131.608 551.186 139.485 550.433 145.23 546.75C152.154 542.312 153.922 528.439 155.457 520.728Z"/>
	<path fill="#0E8849" transform="scale(3.90625 3.90625)" d="M189.849 659.434L189.852 658.984C190.433 647.2 199.841 639.049 207.766 631.505C214.105 637.206 219.971 642.452 223.263 650.484C222.772 654.326 223.022 658.311 222.38 662.093C221.236 668.825 216.519 676.027 211.695 680.696C210.52 681.257 209.375 681.838 208.145 682.269L203.635 682.219C202.262 680.04 200.907 679.565 199.011 678.02C196.445 675.927 194.672 673.545 193.511 670.418L189.849 659.434Z"/>
	<path fill="#087990" transform="scale(3.90625 3.90625)" d="M721.547 152.571L722.125 152.375C722.028 150.465 721.975 148.67 722.183 146.767L723.355 145.85C723.865 146.997 724.081 147.752 723.878 149L724.059 149.375C724.384 150.238 724.32 151.094 724.378 152L724.5 153.25L724.508 153.754C724.601 154.628 725.134 155.458 725.526 156.223L725.615 156.857C727.038 168.082 725.572 179.605 723.366 190.603C728.525 184.279 733.039 177.066 737.116 170L742.856 159.886C743.555 158.674 744.458 156.65 745.423 155.656C746.616 156.299 747.666 156.761 748.595 157.77L752.113 159.887L752.466 161.513L753.034 162.342L753.855 162.35L754.462 162.762C755.142 163.217 754.854 163.12 755.305 163.234L755.094 163.746C750.212 175.109 739.165 185.161 729.862 193.068L758.675 187.207C758.962 188.375 759.177 189.617 759.638 190.727L732.78 197.107C730.986 196.8 728.91 198.173 727.028 198.487L726.63 198.576L726.342 197.992C725.1 197.642 723.584 197.171 722.656 196.236L722.344 195.841C720.966 196.086 719.582 196.052 718.185 196.082L709.077 148.526L709.33 148.352L710.25 147.745L710.766 147.25C711.818 146.972 712.356 146.863 713.41 147.166L714.057 147.234C716.433 147.467 718.575 147.405 720.95 147.214L721.547 152.571Z"/>
	<path fill="#BDDDE1" transform="scale(3.90625 3.90625)" d="M748.595 157.77L752.113 159.887L752.466 161.513C746.954 169.889 740.1 177.559 733.358 184.959L748.424 158.163L748.595 157.77Z"/>
	<path fill="#BDDDE1" transform="scale(3.90625 3.90625)" d="M713.41 147.166L714.057 147.234C716.433 147.467 718.575 147.405 720.95 147.214L721.547 152.571C722.145 164.324 721.807 175.471 720.11 187.131C717.523 173.812 713.609 160.864 713.41 147.166Z"/>
	<path fill="#772226" transform="scale(3.90625 3.90625)" d="M781.173 342.119C781.347 342.326 781.442 342.64 781.693 342.74C781.922 342.832 784.173 342.299 784.555 342.229C788.914 341.432 803.017 337.298 806.391 338.509C798.813 353.852 786.207 376.357 792.005 393.968C793.67 399.026 796.947 403.141 801.766 405.483C806.908 407.981 812.082 408.859 817.68 409.633C810.113 414.043 797.387 416.226 788.872 413.953C781.861 412.081 776.576 408.504 773.033 402.156C771.09 398.676 770.161 394.897 769.27 391.048C768.083 385.92 768.578 380.539 768.301 375.328C770.019 373.02 771.212 369.783 772.376 367.147C776.017 358.908 778.537 350.694 781.173 342.119Z"/>
	<path fill="#F9F0CC" transform="scale(3.90625 3.90625)" d="M830.079 855.533C837.005 855.591 844.029 854.272 850.751 852.666C854.062 859.497 855.613 866.084 856.886 873.509C859.882 890.979 859.086 908.73 853.258 925.553L851.095 931.321L829.935 931.45L829.798 879.993C829.782 872.158 828.951 863.24 830.079 855.533Z"/>
	<path fill="#E8453D" transform="scale(3.90625 3.90625)" d="M169.816 646.898C169.234 642.862 169.636 638.541 169.792 634.477L170.88 615.862C178.554 620.55 185.655 625.528 192.262 631.652C195.252 623.833 202.099 614.527 207.73 608.364C214.164 614.974 218.849 623.694 224.061 631.298C226.26 630.516 228.925 627.475 230.88 625.905C235.675 622.058 240.589 618.04 246.068 615.225L248.123 631.813C248.622 636.066 249.332 640.312 249.099 644.602C241.102 650.028 232.939 654.687 226.175 661.692C225.506 657.776 224.614 654.232 223.263 650.484C219.971 642.452 214.105 637.206 207.766 631.505C199.841 639.049 190.433 647.2 189.852 658.984L189.849 659.434L189.343 659.644C186.726 658.458 184.26 656.061 181.862 654.424L169.816 646.898Z"/>
	<path fill="#0C759C" transform="scale(3.90625 3.90625)" d="M718.185 196.082C719.582 196.052 720.966 196.086 722.344 195.841L722.656 196.236C723.584 197.171 725.1 197.642 726.342 197.992L726.63 198.576L727.028 198.487C728.91 198.173 730.986 196.8 732.78 197.107C750.391 198.546 772.48 203.783 784.375 218.003C786.547 220.6 788.629 223.417 790.009 226.517C788.296 231.66 783.937 234.822 779.61 237.737L779.563 237.74C769.953 246.164 759.007 249.545 746.562 251.037C739.018 250.521 733.132 248.953 726.032 246.588C726.081 234.213 725.495 222.392 722.228 210.372C721.058 206.066 718.93 201.832 718.004 197.516L717.82 196.61L718.185 196.082Z"/>
	<path fill="#075074" transform="scale(3.90625 3.90625)" d="M718.185 196.082C719.582 196.052 720.966 196.086 722.344 195.841L722.656 196.236C723.584 197.171 725.1 197.642 726.342 197.992L726.63 198.576L732.649 206.213C733.187 206.992 732.947 206.674 733.717 207.462L734.691 207.443C738.89 207.381 742.807 207.93 745.891 211.1C747.37 212.621 748.08 214.164 748.25 216.257L747.5 216.935C742.568 215.986 738.427 214.221 733.25 214.458C731.181 217.473 731.736 223.836 732.395 227.298C733.362 232.377 736.309 236.525 740.634 239.317C743.138 240.933 745.839 241.64 748.75 242.093L749.523 242.218C756.335 243.247 764.612 241.721 771.173 239.841C773.955 239.044 776.648 237.827 779.563 237.74C769.953 246.164 759.007 249.545 746.562 251.037C739.018 250.521 733.132 248.953 726.032 246.588C726.081 234.213 725.495 222.392 722.228 210.372C721.058 206.066 718.93 201.832 718.004 197.516L717.82 196.61L718.185 196.082Z"/>
	<path fill="#FEBB21" transform="scale(3.90625 3.90625)" d="M198.993 260.836C195.319 256.633 192.76 250.778 191.592 245.351L191.414 244.5C189.968 237.926 189.914 230.796 191.511 224.25L192.793 219.97C196.897 209.446 205.255 201.094 215.633 196.675C224.585 192.863 236.26 192.561 245.302 196.168C249.476 209.023 248.761 225.306 242.447 237.438C237.142 247.632 227.407 255.768 216.403 259.151C210.623 260.927 204.999 261.387 198.993 260.836Z"/>
	<path fill="#096B3C" transform="scale(3.90625 3.90625)" d="M324.892 256.597C325.769 255.882 326.337 255.286 327.492 255.119L328.014 256.396C325.947 258.238 324.881 263.497 323.895 266.064L308.494 309.585C307.579 312.395 305.882 315.569 305.486 318.424L305.651 318.861C307.9 324.64 311.074 330.119 313.53 335.837C320.265 351.516 325.429 368.208 328.245 385.05C331.387 382.636 334.448 380.558 337.999 378.794C345.62 375.008 352.686 374.024 361.107 373.999C364.187 373.989 367.584 373.948 370.528 374.946L370.899 375.969L349.263 391.145L336.142 399.999C334.37 401.239 332.336 402.231 331.492 404.25L331.684 405.798L331.748 405.833L332.863 422.535L327.192 421.034C326.404 400.56 321.844 379.719 316.334 360.054L314.987 359.524C300.381 357.667 286.52 355.22 272.303 351.354L259.856 347.632C257.317 346.753 254.765 345.206 252.115 344.946L251.168 343.861L252.032 342.997C254.474 341.541 257.304 340.83 260 339.974C270.653 336.592 283.457 335.747 294.292 338.568C300.195 340.105 305.008 342.548 310.08 345.854C310.79 346.317 310.483 346.187 311.281 346.314C309.061 338.984 305.369 331.831 301.923 325C294.161 309.612 285.303 294.473 274.814 280.768C273.8 279.327 272.463 277.903 272.165 276.151C273.457 275.122 274.122 274.861 275.75 274.576L277.533 276.087L293.853 298.465C294.843 296.666 294.6 292.602 295.217 290.311C299.348 274.965 311.641 264.361 324.892 256.597Z"/>
	<path fill="#4AB556" transform="scale(3.90625 3.90625)" d="M328.245 385.05C331.387 382.636 334.448 380.558 337.999 378.794C345.62 375.008 352.686 374.024 361.107 373.999C364.187 373.989 367.584 373.948 370.528 374.946C369.468 374.945 368.904 374.728 368.031 375.327C366.838 376.145 365.363 376.257 364.043 376.832L354.87 381.086C345.897 385.201 337.732 389.98 329.767 395.827L328.245 385.05Z"/>
	<path fill="#4AB556" transform="scale(3.90625 3.90625)" d="M293.853 298.465C294.843 296.666 294.6 292.602 295.217 290.311C299.348 274.965 311.641 264.361 324.892 256.597C323.545 260.096 320.335 263.55 318.477 267C311.096 280.702 303.38 296.385 301.683 312.018L293.853 298.465Z"/>
	<path fill="#4AB556" transform="scale(3.90625 3.90625)" d="M252.032 342.997C254.474 341.541 257.304 340.83 260 339.974C270.653 336.592 283.457 335.747 294.292 338.568C300.195 340.105 305.008 342.548 310.08 345.854C310.79 346.317 310.483 346.187 311.281 346.314L315.119 355.614C301.729 352.387 288.553 348.353 274.913 346.205L260.965 344.25C258.321 343.962 254.213 344.55 252.032 342.997Z"/>
	<path fill="#4AB556" transform="scale(3.90625 3.90625)" d="M71.1515 785.462L71.5988 785.733C80.0828 790.791 89.5206 794.601 98.203 799.455C133.454 819.162 168.025 843.106 193.213 875.151C198.35 881.686 205.532 890.183 208.096 898.099L199.4 897.253C185.119 895.05 171.838 890.21 159 883.563C128.514 867.778 105.498 843.643 86.7796 815.261C80.585 805.869 74.5552 796.257 71.1515 785.462Z"/>
	<path fill="#9F4846" transform="scale(3.90625 3.90625)" d="M790.009 226.517C794.537 228.745 798.704 232.113 802.565 235.331C811.074 242.423 818.255 250.123 821.96 260.75C829.511 282.408 823.607 304.599 813.772 324.431L806.391 338.509C803.017 337.298 788.914 341.432 784.555 342.229C784.173 342.299 781.922 342.832 781.693 342.74C781.442 342.64 781.347 342.326 781.173 342.119C783.799 332.45 784.461 322.556 783.942 312.572C783.548 304.993 781.391 296.992 778.512 290C776.436 284.959 774.032 279.743 770.919 275.25C764.297 265.698 755.087 258.744 746.562 251.037C759.007 249.545 769.953 246.164 779.563 237.74L779.61 237.737C783.937 234.822 788.296 231.66 790.009 226.517Z"/>
	<path fill="#BCC74D" transform="scale(3.90625 3.90625)" d="M390.419 448.742C405.391 446.287 420.093 441.4 433.387 434.023C442.307 429.072 450.997 423.31 459.25 417.305C472.991 407.307 485.178 395.489 500.236 387.396C503.421 385.684 507.253 383.514 510.901 383.189C506.419 391.523 502.145 399.769 498.48 408.5L492.621 424.125L480.335 469.362L472.622 499.656L456.105 495.176C451.462 493.787 445.821 491.096 441.023 491.024L437.563 496.014C434.835 495.504 432.06 495.344 429.439 494.383C427.701 494.59 425.674 493.997 423.96 493.634L409.884 489.924C409.302 482.382 407.571 476.245 404.896 469.214C401.169 461.831 397.106 453.85 390.419 448.742Z"/>
	<path fill="#727F3D" transform="scale(3.90625 3.90625)" d="M404.896 469.214C410.706 467.305 417.023 466.201 422.952 464.579C440.821 459.689 456.115 452.668 471.247 441.851C475.379 438.897 479.528 435.824 483.311 432.43C486.278 429.769 488.963 426.627 492.253 424.369L492.621 424.125L480.335 469.362L472.622 499.656L456.105 495.176C451.462 493.787 445.821 491.096 441.023 491.024L437.563 496.014C434.835 495.504 432.06 495.344 429.439 494.383C427.701 494.59 425.674 493.997 423.96 493.634L409.884 489.924C409.302 482.382 407.571 476.245 404.896 469.214Z"/>
	<path fill="#A1D8D7" transform="scale(3.90625 3.90625)" d="M429.439 494.383L440.392 491.051L441.023 491.024L437.563 496.014C434.835 495.504 432.06 495.344 429.439 494.383Z"/>
	<path fill="#BDDDE1" transform="scale(3.90625 3.90625)" d="M440.392 491.051C444.537 488.697 449.231 487.06 453.561 485.041C463.006 480.639 471.996 475.63 480.335 469.362L472.622 499.656L456.105 495.176C451.462 493.787 445.821 491.096 441.023 491.024L440.392 491.051Z"/>
	<path fill="#711D23" transform="scale(3.90625 3.90625)" d="M605.998 175.533L606.401 176.407C606.832 177.365 607.041 178.219 607.255 179.25C613.477 209.159 628.633 242.264 654.951 259.225C671.393 269.821 696.237 277.823 715.733 273.451L717 273.141L717.59 273.006C719.014 272.666 721.215 271.93 722.047 270.638C723.054 269.076 723.388 266.137 723.705 264.289L726.032 246.588C733.132 248.953 739.018 250.521 746.562 251.037C755.087 258.744 764.297 265.698 770.919 275.25C774.032 279.743 776.436 284.959 778.512 290C781.391 296.992 783.548 304.993 783.942 312.572C784.461 322.556 783.799 332.45 781.173 342.119C778.537 350.694 776.017 358.908 772.376 367.147C771.212 369.783 770.019 373.02 768.301 375.328C762.392 386.851 756.375 399.146 752.782 411.619C749.35 405.914 758.821 372.639 760.472 364.161L763.556 343.227C765.225 326.282 764.679 307.429 756.115 292.297C751.516 284.171 745.262 278.62 736.152 276.181C732.586 275.226 724.628 274.607 721.454 276.488C718.705 285.459 716.282 294.037 712.207 302.581C703.285 321.288 686.02 337.64 667.906 347.235C652.09 355.613 634.845 361.377 617 363.345C607.411 364.403 597.594 364.261 587.956 364.49C605.539 360.191 622.38 353.985 636.106 341.71C642.116 336.335 647.171 330.076 652.166 323.782C654.978 326.865 657.464 328.944 661.51 330.362C668.575 332.836 677.61 331.855 684.275 328.621C691.714 325.012 698.029 318.242 700.55 310.321C702.618 303.824 702.597 296.183 699.364 290.064C696.458 284.566 691.204 280.434 685.261 278.677C676.792 276.174 668.474 279.253 661.077 283.285C647.738 270.166 634.707 256.788 625.346 240.422C620.127 231.299 616.193 220.967 613.046 210.96C609.395 199.352 606.897 187.678 605.998 175.533Z"/>
	<path fill="#F16C34" transform="scale(3.90625 3.90625)" d="M265.878 212.278C266.64 207.553 267.164 202.657 268.301 198.011C270.375 189.54 274.337 181.446 279.191 174.233C292.542 190.037 296.936 209.964 295.333 230.25C294.351 242.683 289.788 256.231 283.511 266.967C281.856 269.797 278.455 273.095 277.533 276.087L275.75 274.576C274.122 274.861 273.457 275.122 272.165 276.151C272.463 277.903 273.8 279.327 274.814 280.768C268.194 286.144 260.782 291.007 252.894 294.286C231.919 303.004 207.979 302.213 187.121 293.677C192.597 283.343 199.035 276.386 207.559 268.541C204.433 266.165 201.579 263.806 198.993 260.836C204.999 261.387 210.623 260.927 216.403 259.151C227.407 255.768 237.142 247.632 242.447 237.438C248.761 225.306 249.476 209.023 245.302 196.168C253.946 200.022 259.728 205.144 265.878 212.278Z"/>
	<path fill="#F7A720" transform="scale(3.90625 3.90625)" d="M245.302 196.168C253.946 200.022 259.728 205.144 265.878 212.278C272.823 224.276 276.278 236.42 272.564 250.227C271.069 255.787 267.812 266.516 262.568 269.294C255.778 272.892 246.867 274.338 239.315 275.265C231.328 276.245 222.143 275.57 214.705 272.286C212.249 271.202 210.008 269.599 207.559 268.541C204.433 266.165 201.579 263.806 198.993 260.836C204.999 261.387 210.623 260.927 216.403 259.151C227.407 255.768 237.142 247.632 242.447 237.438C248.761 225.306 249.476 209.023 245.302 196.168Z"/>
	<path fill="#0C759C" transform="scale(3.90625 3.90625)" d="M534.826 361.072C543.678 363.857 552.949 365.51 562.223 365.929C566.578 366.126 570.952 365.71 575.302 365.931C574.391 369.87 572.024 376.466 572.333 380.459C572.436 381.786 573.568 384.134 574.267 385.264L575.791 387.512L579.573 389.075L580.709 389.199C583.836 390.309 587.414 391.339 590.119 393.279C574.878 401.678 565.403 416.273 557.362 431.279C556.167 433.509 554.583 438.651 552.533 440.004C553.668 441.969 553.445 443.505 553.498 445.709C556.614 446.345 558.965 447.184 560.765 449.951C561.96 451.789 561.961 454.531 561.397 456.588C560.764 458.902 558.805 461.625 556.598 462.634L555.066 463.119L556.299 463.75C555.754 466.127 554.114 468.648 553.014 470.841L546.15 484.917C545.818 485.644 544.639 487.604 544.637 488.25C544.635 488.897 545.338 490.094 545.636 490.686C541.765 493.02 537.856 495.605 533.686 497.362C514.648 505.383 492.422 502.755 472.622 499.656L480.335 469.362L492.621 424.125L498.48 408.5C502.145 399.769 506.419 391.523 510.901 383.189C511.896 382.203 512.936 381.193 514.109 380.419C517.271 378.332 523.332 378.404 526.957 379.118C528.036 378.276 529.167 377.795 530.397 377.215C531.931 373.657 532.891 369.88 533.852 366.135L534.826 361.072Z"/>
	<path fill="#F9E75D" transform="scale(3.90625 3.90625)" d="M498.137 431.25C499.211 431.005 500.133 431.031 501.186 431.35C502.723 431.815 503.891 433.196 504.521 434.629C505.131 436.018 505.152 437.541 504.588 438.945C503.862 440.751 502.961 441.497 501.25 442.26C500.209 442.434 499.277 442.601 498.233 442.356C496.722 442.002 495.585 441.061 494.796 439.741C493.602 437.743 493.964 435.877 494.55 433.75C495.739 432.23 496.308 431.864 498.137 431.25Z"/>
	<path fill="#F9E75D" transform="scale(3.90625 3.90625)" d="M553.498 445.709C556.614 446.345 558.965 447.184 560.765 449.951C561.96 451.789 561.961 454.531 561.397 456.588C560.764 458.902 558.805 461.625 556.598 462.634L555.066 463.119C552.442 463.125 549.88 463.259 547.572 461.807C545.679 460.617 544.041 458.491 543.611 456.268C543.218 454.238 544.229 451.493 545.439 449.867C547.658 446.884 549.998 446.248 553.498 445.709Z"/>
	<path fill="#BCC74D" transform="scale(3.90625 3.90625)" d="M534.826 361.072C543.678 363.857 552.949 365.51 562.223 365.929C566.578 366.126 570.952 365.71 575.302 365.931C574.391 369.87 572.024 376.466 572.333 380.459C572.436 381.786 573.568 384.134 574.267 385.264L575.791 387.512L579.573 389.075L580.709 389.199C583.836 390.309 587.414 391.339 590.119 393.279C574.878 401.678 565.403 416.273 557.362 431.279C556.167 433.509 554.583 438.651 552.533 440.004C550.417 439.108 547.869 438.687 545.631 438.137L530.057 434.641L502.21 427.812C508.033 409.921 514.773 394.357 526.699 379.647L526.957 379.118C528.036 378.276 529.167 377.795 530.397 377.215C531.931 373.657 532.891 369.88 533.852 366.135L534.826 361.072Z"/>
	<path fill="#F9F0CC" transform="scale(3.90625 3.90625)" d="M534.826 361.072C543.678 363.857 552.949 365.51 562.223 365.929C566.578 366.126 570.952 365.71 575.302 365.931C574.391 369.87 572.024 376.466 572.333 380.459C572.436 381.786 573.568 384.134 574.267 385.264L575.791 387.512L579.573 389.075L580.709 389.199C579.371 391.542 576.291 393.133 574 394.484C570.505 396.545 567.803 399.393 564.75 402.016C559.363 406.644 551.371 410.505 544.081 409.771C539.05 409.265 532.81 407.378 529.651 403.178C524.356 396.137 525.718 387.723 526.699 379.647L526.957 379.118C528.036 378.276 529.167 377.795 530.397 377.215C531.931 373.657 532.891 369.88 533.852 366.135L534.826 361.072Z"/>
	<path fill="#F3A37E" transform="scale(3.90625 3.90625)" d="M533.852 366.135C543.795 377.673 560.289 384.477 574.956 387.855L575.791 387.512L579.573 389.075C578.861 389.306 578.236 389.156 577.5 388.991C570.2 387.352 562.635 391.353 555.25 391.92C548.255 392.458 539.747 391.846 534.244 386.986C531.311 384.396 530.613 380.962 530.397 377.215C531.931 373.657 532.891 369.88 533.852 366.135Z"/>
	<path fill="#F16C34" transform="scale(3.90625 3.90625)" d="M534.826 361.072C543.678 363.857 552.949 365.51 562.223 365.929C566.578 366.126 570.952 365.71 575.302 365.931C574.391 369.87 572.024 376.466 572.333 380.459C572.436 381.786 573.568 384.134 574.267 385.264L575.791 387.512L574.956 387.855C560.289 384.477 543.795 377.673 533.852 366.135L534.826 361.072Z"/>
	<path fill="#E8453D" transform="scale(3.90625 3.90625)" d="M768.814 589.12C769.415 583.797 770.423 579.73 774.796 576.166C777.557 573.916 781.571 572.812 785.113 573.216C794.824 574.324 802.523 582.014 808.166 589.412L812.719 596.012C809.1 585.44 805.174 572.672 810.487 561.968C812.37 558.173 815.85 555.154 819.919 553.923C823.599 552.811 827.898 553.257 831.25 555.143C835.447 557.504 837.698 562.136 838.739 566.658C841.27 577.657 836.796 588.767 833.222 598.951C840.45 589.764 846.874 577.162 859.99 575.57C864.351 575.04 868.361 576.149 871.792 578.932C874.729 581.315 877.252 585.13 877.444 589C877.667 593.496 875.086 598.256 872.052 601.397C865.401 608.281 855.362 611.82 846.345 614.372C849.308 614.302 852.08 613.635 855.007 613.459C864.304 612.9 874.882 613.898 881.947 620.717C885.087 623.746 886.891 627.414 886.75 631.819C886.609 636.216 884.924 640.428 881.513 643.29C877.513 646.646 871.42 647.06 866.433 646.468C857.372 645.392 849.463 639.752 842.181 634.678C849.258 641.936 859.775 652.43 859.384 663.5C859.272 666.69 857.65 670.096 855.996 672.768L853.247 675.228C849.693 677.934 845.405 679.031 841 678.441C835.834 677.749 832.557 674.767 829.607 670.775C829.023 668.741 828.236 666.588 826.596 665.193L826.391 664.875C824.133 663.513 821.973 662.156 819.467 661.283C817.611 665.444 815.709 669.16 812.469 672.421C808.951 675.962 804.406 678.634 799.25 678.464C795.171 678.33 790.828 676.154 788.25 673.041C785.512 669.733 784.87 664.155 785.52 660C787.394 648.02 799.688 638.485 808.75 631.872L808.5 631.452C805.789 632.852 803.409 634.809 800.865 636.485C793.34 641.444 784.912 646.171 775.578 645.447C771.502 645.131 767.295 643.051 764.682 639.891C761.894 636.517 760.999 631.852 761.515 627.582C761.932 624.129 764.43 620.406 767.1 618.296C776.253 611.062 788.448 612.009 799.284 613.518C792.288 610.083 785.243 608.534 778.642 603.932C773.07 600.048 770.105 595.803 768.814 589.12Z"/>
	<path fill="#A1D8D7" transform="scale(3.90625 3.90625)" d="M819.467 661.283C821.211 655.73 821.976 650.49 823.142 644.844C823.834 651.709 824.733 658.174 826.391 664.875C824.133 663.513 821.973 662.156 819.467 661.283Z"/>
	<path fill="#F9E75D" transform="scale(3.90625 3.90625)" d="M822.321 604.069C825.249 603.804 828.082 603.816 830.899 604.749C835.011 606.111 838.413 609.64 840.25 613.483C841.756 616.633 842.02 619.946 840.775 623.245C838.778 628.537 835.022 631.216 830.078 633.437C827.217 634.258 824.077 634.32 821.283 633.199C817.05 631.499 813.406 628.031 811.79 623.725C810.313 619.788 810.65 615.259 812.518 611.5C814.628 607.252 818.027 605.529 822.321 604.069Z"/>
	<path fill="#096B3C" transform="scale(3.90625 3.90625)" d="M208.145 682.269C209.375 681.838 210.52 681.257 211.695 680.696L212.501 682.466L212.589 764.668L213.025 759.5C214.404 758.542 224.41 760.297 226.912 760.426C228.813 757.029 231.995 754.528 235.033 752.202C243.577 748.434 250.73 747.087 259.642 750.523C263.095 751.854 265.434 753.569 267.984 756.233L268.85 757.858C259.076 760.076 249.528 762.514 239.992 765.614C236.129 766.87 230.931 768.159 227.89 770.956L227.432 771.099L212.469 785.302L212.579 877.018L212.469 892.419C214.43 890.237 215.9 887.754 217.676 885.432L228.839 872.228C255.285 843.365 286.741 820.142 321.359 802.035L338.442 793.965C340.639 793.017 343.637 791.422 346.012 791.235L346.805 791.198L347.517 792L347.402 792.909C343.853 795.613 338.57 797.131 334.5 799.054L314.584 809.31C286.507 825.017 261.046 843.786 238.461 866.763C229.241 876.144 219.746 886.794 212.878 898.033C212.177 902.016 212.542 906.372 212.548 910.428L212.604 931.993L208.75 931.792L208.385 929.988L208.396 909.512C208.393 905.74 208.622 901.84 208.096 898.099C205.532 890.183 198.35 881.686 193.213 875.151C168.025 843.106 133.454 819.162 98.203 799.455C89.5206 794.601 80.0828 790.791 71.5988 785.733L71.1515 785.462C70.9515 784.259 71.0061 784.134 71.5008 783.011C73.1536 781.203 75.0868 780.61 77.5 780.494C99.3356 779.448 123.204 787.283 142.583 796.778C150.762 784.649 164.629 775.506 178.019 770.174L190.586 765.883C195.68 764.394 204.333 763.797 207.646 759.483L208.195 759.446L208.077 758.986L206.558 758.798C199.097 752.107 189.422 747.155 181.072 741.613C178.87 740.151 176.583 738.717 174.477 737.122C173.032 736.028 171.973 734.893 170.186 734.418L169.706 733L170.521 732.001L170.996 731.526C173.912 729.078 179.961 730.154 183.516 730.666C193.757 732.141 201.69 736.841 207.947 745.054C208.713 739.197 208.102 732.551 208.102 726.618L208.354 683.406L208.145 682.269Z"/>
	<path fill="#F9F0CC" transform="scale(3.90625 3.90625)" d="M212.589 764.668L213.025 759.5C214.404 758.542 224.41 760.297 226.912 760.426C225.994 762.657 224.947 764.857 224.555 767.25L225.49 769.006C224.54 770.54 222.601 771.933 221.257 773.172L212.51 781.249L212.589 764.668Z"/>
	<path fill="#4AB556" transform="scale(3.90625 3.90625)" d="M208.354 683.406L208.401 757.129C201.416 749.773 191.311 744.262 182.702 738.947C178.854 736.571 174.743 733.599 170.521 732.001L170.996 731.526C173.912 729.078 179.961 730.154 183.516 730.666C193.757 732.141 201.69 736.841 207.947 745.054C208.713 739.197 208.102 732.551 208.102 726.618L208.354 683.406Z"/>
	<path fill="#4AB556" transform="scale(3.90625 3.90625)" d="M235.033 752.202C243.577 748.434 250.73 747.087 259.642 750.523C263.095 751.854 265.434 753.569 267.984 756.233C258.121 757.094 247.619 760.135 238.25 763.307C234.146 764.697 229.328 766.18 226.009 769.006L225.49 769.006L224.555 767.25C224.947 764.857 225.994 762.657 226.912 760.426C228.813 757.029 231.995 754.528 235.033 752.202Z"/>
	<path fill="#4AB556" transform="scale(3.90625 3.90625)" d="M142.583 796.778C165.552 809.236 186.296 824.906 199.658 847.97C203.021 853.773 205.353 859.83 208.2 865.855L208.403 770.311L208.543 802.775L208.549 856.312L208.961 881.581C208.968 884.891 209.289 888.516 208.776 891.761C190.826 860.821 162.9 837.734 133.893 817.661C114.552 804.277 93.4205 791.702 71.5008 783.011C73.1536 781.203 75.0868 780.61 77.5 780.494C99.3356 779.448 123.204 787.283 142.583 796.778Z"/>
	<path fill="#F9F0CC" transform="scale(3.90625 3.90625)" d="M208.195 759.446L208.403 770.311L208.2 865.855C205.353 859.83 203.021 853.773 199.658 847.97C186.296 824.906 165.552 809.236 142.583 796.778C150.762 784.649 164.629 775.506 178.019 770.174L190.586 765.883C195.68 764.394 204.333 763.797 207.646 759.483L208.195 759.446Z"/>
	<path fill="#9F4846" transform="scale(3.90625 3.90625)" d="M721.454 276.488C724.628 274.607 732.586 275.226 736.152 276.181C745.262 278.62 751.516 284.171 756.115 292.297C764.679 307.429 765.225 326.282 763.556 343.227L760.472 364.161C758.821 372.639 749.35 405.914 752.782 411.619C750.111 424.869 750.594 436.755 756.676 449.078L764.92 464.228C766.799 468.077 768.496 472.221 768.589 476.558C768.816 487.186 762.434 493.91 755.475 501.068C755.663 498.573 758.436 494.584 759.341 491.972C760.843 487.636 760.946 482.889 758.034 479.09C755.904 476.312 752.432 474.521 749.396 472.881C739.463 467.518 728.468 464.843 718.544 459.403C706.492 452.796 695.99 443.229 690.074 430.65C685.48 420.88 683.521 410.692 683.463 399.933C683.391 386.519 686.618 373.618 692.246 361.474C700.117 344.492 711.354 329.378 717.619 311.575C720.821 302.475 722.007 293.015 722.054 283.407C722.065 281.259 722.397 278.429 721.454 276.488Z"/>
	<path fill="#BCC74D" transform="scale(3.90625 3.90625)" d="M590.119 393.279L593.604 394.625C596.688 395.818 599.677 398.765 602.155 400.938C614.225 414.109 622.07 429.082 621.279 447.404C621.007 453.722 620.174 460.254 618.394 466.336C613.994 480.852 606.754 492.096 597.435 503.959C580.784 521.957 564.602 538.617 541.509 548.317C535.481 550.59 529.511 552.907 523.193 554.257C505.794 557.976 485.155 556.777 467.841 552.742L452.52 548.872C444.521 546.466 436.762 543.147 429.086 539.879C429.019 536.755 429.223 533.277 428.711 530.209L428.574 529.439C429.362 517.383 431.907 506.761 437.563 496.014L441.023 491.024C445.821 491.096 451.462 493.787 456.105 495.176L472.622 499.656C492.422 502.755 514.648 505.383 533.686 497.362C537.856 495.605 541.765 493.02 545.636 490.686C545.338 490.094 544.635 488.897 544.637 488.25C544.639 487.604 545.818 485.644 546.15 484.917L553.014 470.841C554.114 468.648 555.754 466.127 556.299 463.75L555.066 463.119L556.598 462.634C558.805 461.625 560.764 458.902 561.397 456.588C561.961 454.531 561.96 451.789 560.765 449.951C558.965 447.184 556.614 446.345 553.498 445.709C553.445 443.505 553.668 441.969 552.533 440.004C554.583 438.651 556.167 433.509 557.362 431.279C565.403 416.273 574.878 401.678 590.119 393.279Z"/>
	<path fill="#075074" transform="scale(3.90625 3.90625)" d="M590.119 393.279L593.604 394.625C596.688 395.818 599.677 398.765 602.155 400.938C599.298 402.714 596.113 404.173 593.433 406.182C580.572 415.822 572.026 430.365 563.763 443.86C564.525 444.959 566.043 445.804 567.236 446.427C568.003 446.827 569.041 446.971 569.871 447.157C570.403 448.522 569.888 450.161 569.651 451.565C568.756 456.86 567.686 461.398 565.522 466.337C561.134 476.352 554.706 484.461 545.636 490.686C545.338 490.094 544.635 488.897 544.637 488.25C544.639 487.604 545.818 485.644 546.15 484.917L553.014 470.841C554.114 468.648 555.754 466.127 556.299 463.75L555.066 463.119L556.598 462.634C558.805 461.625 560.764 458.902 561.397 456.588C561.961 454.531 561.96 451.789 560.765 449.951C558.965 447.184 556.614 446.345 553.498 445.709C553.445 443.505 553.668 441.969 552.533 440.004C554.583 438.651 556.167 433.509 557.362 431.279C565.403 416.273 574.878 401.678 590.119 393.279Z"/>
	<path fill="#9F4846" transform="scale(3.90625 3.90625)" d="M477.243 190.711C475.315 190.318 473.729 189.683 471.941 188.87C476.044 166.419 495.304 146.675 513.546 134.141C539.692 116.176 569.25 107.906 600.766 113.898C612.177 116.067 622.632 119.478 632.825 125.073C636.778 127.243 640.7 130.79 645 132.025C671.708 139.697 692.379 156.911 707.753 179.729C711.428 185.185 714.302 191.095 717.82 196.61L718.004 197.516C718.93 201.832 721.058 206.066 722.228 210.372C725.495 222.392 726.081 234.213 726.032 246.588L723.705 264.289C723.388 266.137 723.054 269.076 722.047 270.638C721.215 271.93 719.014 272.666 717.59 273.006L717 273.141L715.733 273.451C696.237 277.823 671.393 269.821 654.951 259.225C628.633 242.264 613.477 209.159 607.255 179.25C607.041 178.219 606.832 177.365 606.401 176.407L605.998 175.533C605.045 172.201 605.533 167.611 605.373 164.07C581.86 185.805 548.716 200.119 516.456 198.946C513.711 198.846 498.353 197.978 496.959 196.654L497.371 196.135C496.157 196.015 495.973 195.98 495 195.255L493.5 195.5C492.471 194.803 492.202 194.994 491 195C490.103 194.461 490.412 194.502 489.533 194.408L489 194.377L488.857 194.107C491.224 194.132 493.51 194.2 495.842 193.705L496.289 193.603C489.63 193.314 483.712 192.055 477.243 190.711Z"/>
	<path fill="#772226" transform="scale(3.90625 3.90625)" d="M545.037 166.75L547.75 166.484C549.1 167.076 549.093 167.198 549.821 168.5C549.115 170.12 548.193 170.602 546.75 171.467C545.685 172.048 544.672 171.913 543.503 171.872C542.65 171.044 542.351 170.682 542.152 169.5C543.042 167.823 543.454 167.686 545.037 166.75Z"/>
	<path fill="#772226" transform="scale(3.90625 3.90625)" d="M527.589 170.052L528.548 170.014C531.06 169.981 531.506 169.862 533.25 171.55L533.212 173.176C532.239 174.823 531.132 175.468 529.514 176.442C527.196 176.692 525.568 176.77 523.7 175.302L523.5 173.25C524.582 171.601 525.883 170.976 527.589 170.052Z"/>
	<path fill="#711D23" transform="scale(3.90625 3.90625)" d="M621.049 178.75C625.386 189.164 628.817 200.054 634.26 209.974C636.408 213.89 638.755 217.595 641.337 221.237C642.686 223.139 644.8 225.46 645.75 227.55C646.354 228.877 645.946 229.459 645.504 230.75L644.703 231.476C643.722 231.554 643.474 231.768 642.618 231.191C640.855 230.001 639.467 227.646 638.296 225.904C629.484 212.798 623.872 194.191 621.049 178.75Z"/>
	<path fill="#711D23" transform="scale(3.90625 3.90625)" d="M496.289 193.603C497.216 193.279 499.403 193.545 500.452 193.542L511.124 193.307C515.897 193.046 520.62 192.533 525.343 191.777C548.918 188.008 572.51 178.829 593.217 167.05C601.622 162.269 609.727 156.737 617.75 151.339C614.224 156.068 609.717 160.103 605.373 164.07C581.86 185.805 548.716 200.119 516.456 198.946C513.711 198.846 498.353 197.978 496.959 196.654L497.371 196.135C496.157 196.015 495.973 195.98 495 195.255L493.5 195.5C492.471 194.803 492.202 194.994 491 195C490.103 194.461 490.412 194.502 489.533 194.408L489 194.377L488.857 194.107C491.224 194.132 493.51 194.2 495.842 193.705L496.289 193.603Z"/>
	<path fill="#0C759C" transform="scale(3.90625 3.90625)" d="M597.435 503.959C597.89 515.267 600.113 526.423 602.206 537.515C606.716 561.407 612.743 584.841 619.82 608.099C624.502 623.483 629.392 638.804 635.472 653.705L613.831 660.566C610.564 661.263 607.033 661.777 603.865 662.834L611.443 689.018C606.345 688.763 601.303 686.155 596.455 684.592L572.946 678.055C568.486 676.925 563.427 676.285 559.183 674.623L557.163 668.408C544.53 668.228 532.14 668.46 519.5 667.501C516.362 667.263 506.123 665.181 503.873 666.532L497.175 696.522L493.073 695.178C490.009 692.293 486.054 689.955 482.632 687.494L467.108 676.536C464.403 674.769 461.605 672.566 458.351 672.039L460.732 655.473L443.284 648.334L445.107 639.783L467.841 552.742C485.155 556.777 505.794 557.976 523.193 554.257C529.511 552.907 535.481 550.59 541.509 548.317C564.602 538.617 580.784 521.957 597.435 503.959Z"/>
	<path fill="#075074" transform="scale(3.90625 3.90625)" d="M547.728 608.25C548.276 608.205 548.712 608.302 549.25 608.399L549.18 609.148C544.584 611.655 538.832 613.013 533.673 613.884C519.516 616.274 504.285 615.717 490.476 611.75C489.829 611.505 489.247 611.189 488.634 610.868L488.67 609.75C490 609.16 491.548 609.745 492.916 610.048C496.77 610.901 500.625 611.903 504.543 612.417C508.184 612.894 511.983 613.175 515.656 613.219C526.432 613.349 537.318 610.762 547.728 608.25Z"/>
	<path fill="#033B5F" transform="scale(3.90625 3.90625)" d="M482.922 582.75C484.706 582.58 487.882 585.794 489.575 586.773C492.091 588.228 494.685 589.471 497.445 590.385C511.841 595.152 528.398 594.976 542.695 589.685C544.814 588.9 546.987 588.018 549 586.991C550.598 586.175 551.901 585.103 553.75 585.011C554.832 585.733 554.763 585.73 555.091 587L553.75 588.33C547.182 592.284 539.156 594.973 531.653 596.333C516.674 599.049 497.881 597.552 485.184 588.472C483.485 587.257 481.864 586.339 481.533 584.25L482.922 582.75Z"/>
	<path fill="#002447" transform="scale(3.90625 3.90625)" d="M557.163 668.408C561.785 667.113 568.169 667.433 573 667.048C583.273 666.228 593.804 665.096 603.865 662.834L611.443 689.018C606.345 688.763 601.303 686.155 596.455 684.592L572.946 678.055C568.486 676.925 563.427 676.285 559.183 674.623L557.163 668.408Z"/>
	<path fill="#002447" transform="scale(3.90625 3.90625)" d="M460.732 655.473C472.156 658.81 483.111 662.258 494.919 664.143C497.08 664.488 502.774 664.682 503.873 666.532L497.175 696.522L493.073 695.178C490.009 692.293 486.054 689.955 482.632 687.494L467.108 676.536C464.403 674.769 461.605 672.566 458.351 672.039L460.732 655.473Z"/>
	<path fill="#075074" transform="scale(3.90625 3.90625)" d="M597.435 503.959C597.89 515.267 600.113 526.423 602.206 537.515C606.716 561.407 612.743 584.841 619.82 608.099C624.502 623.483 629.392 638.804 635.472 653.705L613.831 660.566L589.39 540.639C585.645 544.891 581.936 549.052 577.409 552.509C569.838 558.291 561.867 563.123 553.004 566.66C550.72 567.572 547.704 568.94 545.25 568.621C542.088 563.654 544.384 554.909 543.875 548.981L543.818 548.25C543.074 548.565 543.483 548.474 542.399 548.396L541.509 548.317C564.602 538.617 580.784 521.957 597.435 503.959Z"/>
	<path fill="#31BCB3" transform="scale(3.90625 3.90625)" d="M223.065 462.876L239.986 416.272L286.321 435.102L291.024 421.371C293.486 418.176 295.658 417.218 299.672 416.708C308.213 415.622 319.059 418.612 327.192 421.034L332.863 422.535C346.228 425.744 361.061 431.396 372.592 438.965C375.82 441.085 379.63 445.708 382.966 447.009C385.692 446.248 386.444 446.456 388.96 447.891L390.419 448.742C397.106 453.85 401.169 461.831 404.896 469.214C407.571 476.245 409.302 482.382 409.884 489.924L423.96 493.634C425.674 493.997 427.701 494.59 429.439 494.383C432.06 495.344 434.835 495.504 437.563 496.014C431.907 506.761 429.362 517.383 428.574 529.439L413.807 524.471C409.157 522.836 402.395 521.414 398.457 518.663C396.084 516.484 379.07 516.095 374.578 515.522L371.164 527.047C370.729 528.437 370.328 530.52 369.579 531.733C367.409 535.023 365.119 542.811 364.557 546.794C364.741 547.576 356.129 573.633 355.26 576.79C346.957 578.508 338.837 578.91 330.391 578.315C300.473 576.207 266.63 564.043 246.58 540.936L254.74 517.158L220.949 470.069L220.591 469.657L223.065 462.876Z"/>
	<path fill="#1DA69E" transform="scale(3.90625 3.90625)" d="M223.065 462.876L257.558 509.526L254.74 517.158L220.949 470.069L220.591 469.657L223.065 462.876Z"/>
	<path fill="#A1D8D7" transform="scale(3.90625 3.90625)" d="M247.39 432.067L281.46 446.856L263.801 492.878L261.268 499.131L235.994 463.646L247.39 432.067Z"/>
	<path fill="#0C414B" transform="scale(3.90625 3.90625)" d="M291.024 421.371C293.486 418.176 295.658 417.218 299.672 416.708C308.213 415.622 319.059 418.612 327.192 421.034L332.863 422.535C346.228 425.744 361.061 431.396 372.592 438.965C375.82 441.085 379.63 445.708 382.966 447.009C382.221 448.934 381.423 450.814 381.015 452.844L379.186 453.25C372.468 454.834 365.055 453.87 358.315 452.775C339.108 449.655 319.743 444.086 303.644 432.822C298.925 429.52 294.424 426.079 291.024 421.371Z"/>
	<path fill="#F3A37E" transform="scale(3.90625 3.90625)" d="M382.966 447.009C385.692 446.248 386.444 446.456 388.96 447.891L390.419 448.742C397.106 453.85 401.169 461.831 404.896 469.214C407.571 476.245 409.302 482.382 409.884 489.924L423.96 493.634C425.674 493.997 427.701 494.59 429.439 494.383C432.06 495.344 434.835 495.504 437.563 496.014C431.907 506.761 429.362 517.383 428.574 529.439L413.807 524.471C409.157 522.836 402.395 521.414 398.457 518.663C396.084 516.484 379.07 516.095 374.578 515.522C368.038 514.852 358.406 514.707 353.112 510.421C351.803 509.361 350.6 508.004 350.475 506.268C350.394 505.147 350.234 504.483 351.002 503.627C353.087 501.301 357.365 501.89 360.246 501.801C357.466 500.705 354.441 500.355 351.696 499.104C349.237 497.983 346.537 496.032 345.703 493.322C345.293 491.988 345.33 490.292 346.159 489.141C348.366 486.074 351.917 486.03 355.3 485.823C353.849 485.093 352.026 484.306 350.905 483.095C349.771 481.872 349.447 481.117 349.609 479.481C349.819 477.361 351.29 475.193 352.949 473.908C356.324 471.295 360.197 471.338 364.237 471.903L364.695 471.972L361.072 469.878C360.011 469.01 359.62 468.196 359.548 466.825C359.475 465.448 360.21 463.927 361.211 462.995C362.77 461.546 365.247 461.467 367.25 461.545C376.811 461.915 386.534 468.725 392.881 475.37L381.015 452.844C381.423 450.814 382.221 448.934 382.966 447.009Z"/>
	<path fill="#56ADC2" transform="scale(3.90625 3.90625)" d="M622.53 857.714L654.017 844.068L658.796 854.313C659.408 855.643 660.177 856.697 660.023 858.179C660.929 858.96 660.999 859.05 661.321 860.2C661.846 864.5 664.022 868.956 665.475 873.037L672.627 894.609L676.675 911.641C677.319 914.859 677.492 919.212 678.937 922.111L680.088 921.873L683.514 934.317C693.422 931.709 704.237 930.371 713.734 926.552C721.212 926.964 729.867 929.102 737.208 930.826C739.714 931.415 742.906 932.77 745.41 932.88C748.854 934.503 755.161 936.606 756.378 940.531C756.743 941.707 756.348 942.635 755.672 943.588C747.786 954.717 679.086 961.875 662.75 963.347L569.379 969.533L472.637 969.012C418.058 967.692 362.533 964.947 308.75 955.171C299.807 953.545 290.589 951.835 282.024 948.75C279.18 947.725 275.885 946.559 273.535 944.65C272.647 943.929 271.786 942.926 271.623 941.75C271.41 940.216 271.668 938.673 272.75 937.512C274.182 935.975 277.032 934.231 279.043 933.737C286.037 931.587 293.329 930.415 300.532 929.21L333.636 924.891L329.991 928.461L456.137 928.939L456.349 929.05L477.775 929.01L478.437 915.406L590.192 916.643L632.382 879.77L628.28 870.321L627.258 868.643L622.53 857.714Z"/>
	<path fill="#A51531" transform="scale(3.90625 3.90625)" d="M456.349 929.05L477.775 929.01L476.969 943.187L453.85 943.159C454.052 938.449 455.118 933.592 456.349 929.05Z"/>
	<path fill="#9F4846" transform="scale(3.90625 3.90625)" d="M678.937 922.111L680.088 921.873L683.514 934.317L596.783 953.265L571.912 958.575C568.217 959.311 564.299 960.451 560.536 960.576C559.213 956.667 557.595 952.142 559.203 948.073L678.937 922.111Z"/>
	<path fill="#9F4846" transform="scale(3.90625 3.90625)" d="M453.85 943.159L325.429 941.966C326.333 937.838 327.37 931.842 329.991 928.461L456.137 928.939L456.349 929.05C455.118 933.592 454.052 938.449 453.85 943.159Z"/>
	<path fill="#F7A720" transform="scale(3.90625 3.90625)" d="M622.53 857.714L654.017 844.068L658.796 854.313C659.408 855.643 660.177 856.697 660.023 858.179C660.929 858.96 660.999 859.05 661.321 860.2C661.846 864.5 664.022 868.956 665.475 873.037L672.627 894.609L676.675 911.641C677.319 914.859 677.492 919.212 678.937 922.111L559.203 948.073C562.092 943.958 566.049 940.312 569.574 936.727L590.192 916.643L632.382 879.77L628.28 870.321L627.258 868.643L622.53 857.714Z"/>
	<path fill="#A51531" transform="scale(3.90625 3.90625)" d="M660.023 858.179C660.929 858.96 660.999 859.05 661.321 860.2L644.934 865.575C639.494 867.383 633.98 869.54 628.28 870.321L627.258 868.643L660.023 858.179Z"/>
	<path fill="#F7A720" transform="scale(3.90625 3.90625)" d="M622.53 857.714L654.017 844.068L658.796 854.313C659.408 855.643 660.177 856.697 660.023 858.179L627.258 868.643L622.53 857.714Z"/>
	<path fill="#F7BD92" transform="scale(3.90625 3.90625)" d="M605.373 164.07C605.533 167.611 605.045 172.201 605.998 175.533C606.897 187.678 609.395 199.352 613.046 210.96C616.193 220.967 620.127 231.299 625.346 240.422C634.707 256.788 647.738 270.166 661.077 283.285C668.474 279.253 676.792 276.174 685.261 278.677C691.204 280.434 696.458 284.566 699.364 290.064C702.597 296.183 702.618 303.824 700.55 310.321C698.029 318.242 691.714 325.012 684.275 328.621C677.61 331.855 668.575 332.836 661.51 330.362C657.464 328.944 654.978 326.865 652.166 323.782C647.171 330.076 642.116 336.335 636.106 341.71C622.38 353.985 605.539 360.191 587.956 364.49C584.975 364.985 577.615 364.545 575.302 365.931C570.952 365.71 566.578 366.126 562.223 365.929C552.949 365.51 543.678 363.857 534.826 361.072C519.001 356.946 504.424 348.715 492.387 337.641C478.102 324.499 465.76 307.024 464.887 286.98C463.805 283.091 464.456 278.286 464.941 274.336C460.197 273.343 455.561 270.414 452.111 267.055C447.128 262.202 443.573 255.683 443.541 248.602C443.503 240.177 447.085 232.466 453.097 226.597C457.836 221.972 462.472 220.035 468.995 220.067L477.243 190.711C483.712 192.055 489.63 193.314 496.289 193.603L495.842 193.705C493.51 194.2 491.224 194.132 488.857 194.107L489 194.377L489.533 194.408C490.412 194.502 490.103 194.461 491 195C492.202 194.994 492.471 194.803 493.5 195.5L495 195.255C495.973 195.98 496.157 196.015 497.371 196.135L496.959 196.654C498.353 197.978 513.711 198.846 516.456 198.946C548.716 200.119 581.86 185.805 605.373 164.07Z"/>
	<path fill="#711D23" transform="scale(3.90625 3.90625)" d="M523.726 307.25C524.475 307.16 524.001 307.18 525.147 307.352L527.771 311.84C530.289 315.419 534.086 317.803 538.426 318.452C546.967 319.728 555.096 317.047 562 312.138L563.003 312.75L562.649 314.25L560.398 316.25C554.5 320.55 545.161 322.505 538.021 321.236C532.438 320.243 528.381 317.282 525.209 312.662C523.874 310.716 523.255 309.609 523.726 307.25Z"/>
	<path fill="#E8453D" transform="scale(3.90625 3.90625)" d="M544.473 269.576C545.587 269.425 546.632 269.494 547.75 269.539L548.11 270.5C548.008 270.917 548.105 271.446 547.803 271.75C547.487 272.067 543.935 272.395 543.25 272.553C541.201 273.027 539.005 273.993 537.436 275.42C536.178 276.563 536.134 277.375 535.999 279C538.661 282.627 542.708 283.836 545.96 286.75C546.004 288.624 545.937 288.579 544.75 290.049C544.394 290.321 544.142 290.547 543.695 290.703C542.091 291.26 540.449 290.888 538.969 290.179C535.81 288.666 532.718 284.475 531.836 281.191C531.301 279.198 531.586 277.482 532.703 275.75C535.163 271.936 540.304 270.533 544.473 269.576Z"/>
	<path fill="#772226" transform="scale(3.90625 3.90625)" d="M604.921 227.616C609.888 227.955 614.074 229.367 617.74 232.891C619.523 234.605 622.57 238.264 622.373 240.853C622.31 241.682 621.351 242.22 620.779 242.75C619.348 242.958 619.305 242.822 618.036 242.086C614.647 239.338 611.442 237.239 607 236.826C605.126 236.652 603.09 236.812 601.25 236.436C599.582 236.096 598.832 235.144 598.01 233.75C598.028 232.549 597.837 231.766 598.522 230.729C599.998 228.494 602.487 228.156 604.921 227.616Z"/>
	<path fill="#772226" transform="scale(3.90625 3.90625)" d="M507.001 204.122C511.634 203.647 515.678 203.626 519.659 206.387C522.392 208.282 524.999 211.758 525.491 215.116C525.755 216.918 525.787 218.15 524.75 219.624C523.227 220.176 523.025 220.116 521.432 219.75C518.79 217.543 517.218 215.049 514.007 213.385C512.388 212.545 510.807 212.055 509 211.827C507.063 211.583 504.962 211.953 503.404 210.591C502.625 208.961 502.523 208.76 502.75 206.982C503.881 205.279 505.15 204.871 507.001 204.122Z"/>
	<path fill="#711D23" transform="scale(3.90625 3.90625)" d="M481.251 249.991C480.51 244.158 482.503 238.614 486.065 234C489.832 229.119 495.877 226.491 501.888 225.763C507.293 225.108 513.17 226.694 517.384 230.184C521.345 233.464 523.963 238.525 524.368 243.653C524.598 246.562 523.618 251.266 521.689 253.508L521.352 253.833C522.576 248.966 522.437 243.895 520.212 239.328C518.275 235.35 514.082 232.043 509.958 230.658C504.721 228.898 498.936 229.188 493.993 231.765C486.662 235.587 483.626 242.483 481.251 249.991Z"/>
	<path fill="#711D23" transform="scale(3.90625 3.90625)" d="M574.878 275.413C574.166 273.252 575.968 269.37 577.011 267.407C580.455 260.925 586.287 257.016 593.25 255.051C599.142 253.388 605.284 254.411 610.515 257.469C615.639 260.464 619.883 265.631 621.236 271.464C621.885 274.261 621.721 278.2 621.139 281L620.984 281.777C620.295 285.019 618.4 289.083 615.496 290.947C614.827 291.376 615.103 291.259 614.309 291.323C615.429 290.005 616.261 288.721 616.963 287.131C619.162 282.155 618.921 276.003 616.934 271C614.743 265.485 609.499 260.715 603.961 258.653C598.691 256.69 593.183 257.644 588.241 260.019C581.421 263.296 577.353 268.411 574.878 275.413Z"/>
	<path fill="#772226" transform="scale(3.90625 3.90625)" d="M477.243 190.711C483.712 192.055 489.63 193.314 496.289 193.603L495.842 193.705C493.51 194.2 491.224 194.132 488.857 194.107L489 194.377L489.533 194.408C490.412 194.502 490.103 194.461 491 195C492.202 194.994 492.471 194.803 493.5 195.5L495 195.255C495.973 195.98 496.157 196.015 497.371 196.135L496.959 196.654L496.424 196.593C492.864 196.165 489.349 195.313 485.918 194.281L474.773 221.338L468.995 220.067L477.243 190.711Z"/>
	<path fill="#F16C34" transform="scale(3.90625 3.90625)" d="M672.172 287.087C675.259 286.903 679.114 286.509 682.029 287.681C685.928 289.249 688.863 292.588 690.401 296.444L690.615 297L691.08 298.243C692.456 302.594 691.122 308.708 688.852 312.521C686.07 317.192 680.893 319.544 675.856 320.824C668.962 322.65 662.477 320.877 656.03 318.444C660.058 309.438 662.619 299.734 663.697 289.924C666.452 288.571 669.169 287.715 672.172 287.087Z"/>
	<path fill="#E8453D" transform="scale(3.90625 3.90625)" d="M671.575 297.559C673.146 297.486 675.397 297.167 676.9 297.642C677.974 297.981 678.749 299.046 679.25 299.987C680.49 302.315 680.059 305.404 679.156 307.788C678.025 310.775 676.294 313.007 673.324 314.25L671.25 314.631C670.412 314.347 670.156 314.615 670.071 313.662C669.928 312.055 670.23 306.673 668.53 306.228C666.834 305.785 666.175 305.73 664.914 304.5L665.036 302.25C666.898 299.537 668.655 298.879 671.575 297.559Z"/>
	<path fill="#F16C34" transform="scale(3.90625 3.90625)" d="M606.515 295.824C608.124 296.414 609.641 296.919 611.327 297.242C616.906 298.314 623.145 302.074 626.425 306.75C627.522 308.315 628.166 309.901 628.579 311.75L628.714 312.331C629.391 315.455 628.82 319.524 626.945 322.171C623.487 327.055 617.497 329.431 611.766 330.315C607.965 330.901 603.714 330.555 600 329.65L599.244 329.479C594.345 328.333 588.864 324.919 586.116 320.57C584.203 317.542 582.996 313.552 583.997 310.025C585.126 306.054 588.2 302.766 591.798 300.863L598.681 297.693L606.515 295.824Z"/>
	<path fill="#FFFEFE" transform="scale(3.90625 3.90625)" d="M481.251 249.991C483.626 242.483 486.662 235.587 493.993 231.765C498.936 229.188 504.721 228.898 509.958 230.658C514.082 232.043 518.275 235.35 520.212 239.328C522.437 243.895 522.576 248.966 521.352 253.833L520.985 254.284C520.374 255.13 520.556 254.896 520.163 255.923C518.484 260.301 513.985 264.56 509.75 266.427C505.667 268.226 501.343 268.555 496.939 268.562C493.77 268.16 490.672 266.838 487.944 265.234C483.633 260.361 482.296 256.383 481.251 249.991Z"/>
	<path fill="#002447" transform="scale(3.90625 3.90625)" d="M492.91 237.588C495.689 237.193 498.457 237.17 501.12 238.166C504.851 239.561 507.704 242.548 509.321 246.148C511.097 250.098 510.794 254.527 509.187 258.48C507.673 262.203 504.744 263.858 501.244 265.339C498.455 265.989 496.281 266.161 493.491 265.411C490.278 264.547 487.485 262.594 485.948 259.582C484.044 255.851 483.725 250.378 485.014 246.445C486.419 242.156 488.964 239.634 492.91 237.588Z"/>
	<path fill="#FFFEFE" transform="scale(3.90625 3.90625)" d="M495.513 242.25C496.08 242.034 496.359 241.896 497.004 241.817C498.378 241.65 500.056 242.205 500.968 243.25C501.872 244.286 502.354 245.637 502.182 247.009C501.958 248.807 501.063 249.813 499.75 250.961C499.186 251.227 498.899 251.394 498.25 251.536C496.886 251.834 495.23 251.482 494.25 250.461C493.033 249.192 492.813 247.426 493.012 245.75C493.193 244.235 494.426 243.178 495.513 242.25Z"/>
	<path fill="#FFFEFE" transform="scale(3.90625 3.90625)" d="M574.878 275.413C577.353 268.411 581.421 263.296 588.241 260.019C593.183 257.644 598.691 256.69 603.961 258.653C609.499 260.715 614.743 265.485 616.934 271C618.921 276.003 619.162 282.155 616.963 287.131C616.261 288.721 615.429 290.005 614.309 291.323C611.682 293.025 609.438 294.623 606.515 295.824L598.681 297.693C591.921 297.473 585.016 297.183 579.897 292.105C574.981 287.23 574.845 281.822 574.878 275.413Z"/>
	<path fill="#033B5F" transform="scale(3.90625 3.90625)" d="M588.278 266.059C591.188 265.928 594.006 265.835 596.797 266.864C599.899 268.007 602.418 270.451 603.761 273.466C605.53 277.438 605.268 282.623 603.556 286.551C601.649 290.926 598.059 293.147 593.869 294.881C591.088 295.104 588.579 294.72 586 293.606C582.147 291.942 579.671 289.299 578.193 285.376C576.705 281.423 576.921 276.362 578.864 272.6C580.714 269.017 584.628 267.205 588.278 266.059Z"/>
	<path fill="#FFFEFE" transform="scale(3.90625 3.90625)" d="M593.402 269.25C594.084 269.089 594.632 269.026 595.336 269.186C597.111 269.587 598.764 271.127 599.531 272.75C600.116 273.987 600.137 275.496 599.575 276.75C598.872 278.319 597.686 278.579 596.25 279.255C595.281 279.415 594.224 279.545 593.25 279.33C591.996 279.054 590.697 278.214 590.07 277.078C589.353 275.781 589.144 274.266 589.605 272.874C590.231 270.979 591.705 270.083 593.402 269.25Z"/>
	<path fill="#F3A37E" transform="scale(3.90625 3.90625)" d="M464.941 274.336C460.197 273.343 455.561 270.414 452.111 267.055C447.128 262.202 443.573 255.683 443.541 248.602C443.503 240.177 447.085 232.466 453.097 226.597C457.836 221.972 462.472 220.035 468.995 220.067L474.773 221.338L471.802 234.753L465.528 266.534C465.476 268.007 464.964 271.394 465.463 272.633C469.317 270.642 473.057 268.776 477.242 267.546C480.688 266.533 484.991 267.157 487.944 265.234C490.672 266.838 493.77 268.16 496.939 268.562L497.605 269.341C499.123 271.022 501.416 272.001 503.316 273.195C508.851 276.673 512.224 282.624 512.084 289.176C512.029 291.754 511.274 293.86 510.163 296.152L509.919 296.671C508.062 300.469 504.218 303.245 500.284 304.561C496.406 305.859 491.957 305.878 487.947 305.198L487.099 305.061C480.366 303.899 473.087 299.317 469.196 293.648L464.887 286.98C463.805 283.091 464.456 278.286 464.941 274.336Z"/>
	<path fill="#E8453D" transform="scale(3.90625 3.90625)" d="M465.528 266.534L464.596 266.031C460.907 264.269 458.527 262.465 456.362 258.926C453.717 254.601 452.817 249.391 454.199 244.485C455.301 240.572 458.008 236.778 461.715 234.953C464.964 233.353 468.471 233.553 471.802 234.753L465.528 266.534Z"/>
	<path fill="#F9F0CC" transform="scale(3.90625 3.90625)" d="M503.873 666.532C506.123 665.181 516.362 667.263 519.5 667.501C532.14 668.46 544.53 668.228 557.163 668.408L559.183 674.623C563.427 676.285 568.486 676.925 572.946 678.055L596.455 684.592C601.303 686.155 606.345 688.763 611.443 689.018L658.169 818.693C655.371 820.573 652.182 821.935 649.146 823.395C642.217 826.846 635.004 831.151 627.689 833.594C622.489 834.421 613.492 838.171 610.051 842.25C609.859 845.841 610.384 848.796 612.868 851.572C613.899 852.724 615.056 853.527 616.652 853.58C618.046 853.627 619.359 853.425 620.712 853.127L622.53 857.714L627.258 868.643L628.28 870.321L632.382 879.77L590.192 916.643L478.437 915.406L477.775 929.01L456.349 929.05L456.137 928.939L465.75 877.583L464.451 876.586C465.647 876.466 465.718 876.719 466.538 875.75L466.431 874.608L463.289 874.154C464.443 874.043 465.515 873.972 466.606 873.542L468.851 861.75L467.3 861.179L469.75 860.894C470.265 859.422 470.641 858.095 470.853 856.547L469.891 856.533C470.33 851.542 469.726 846.545 470.472 841.55L463.5 841.005C466.86 827.855 468.696 814.479 470.987 801.111L477.978 762.279C481.953 739.557 485.997 717.189 493.073 695.178L497.175 696.522L503.873 666.532Z"/>
	<path fill="#F49027" transform="scale(3.90625 3.90625)" d="M474.446 841.585C478.042 841.565 486.222 840.702 488.75 843.279C490.142 844.699 490.506 846.668 490.377 848.582C490.177 851.558 489.488 853.932 487.25 855.954C485.387 856.604 483.585 856.8 481.631 857.02C478.447 856.053 474.178 856.441 470.853 856.547L469.891 856.533C470.33 851.542 469.726 846.545 470.472 841.55L474.446 841.585Z"/>
	<path fill="#033B5F" transform="scale(3.90625 3.90625)" d="M493.073 695.178L497.175 696.522L475.004 835.25L474.446 841.585L470.472 841.55L463.5 841.005C466.86 827.855 468.696 814.479 470.987 801.111L477.978 762.279C481.953 739.557 485.997 717.189 493.073 695.178Z"/>
	<path fill="#F16C34" transform="scale(3.90625 3.90625)" d="M470.853 856.547C474.178 856.441 478.447 856.053 481.631 857.02L478.437 915.406L477.775 929.01L456.349 929.05L456.137 928.939L465.75 877.583L464.451 876.586C465.647 876.466 465.718 876.719 466.538 875.75L466.431 874.608L463.289 874.154C464.443 874.043 465.515 873.972 466.606 873.542L468.851 861.75L467.3 861.179L469.75 860.894C470.265 859.422 470.641 858.095 470.853 856.547Z"/>
	<path fill="#075074" transform="scale(3.90625 3.90625)" d="M559.183 674.623C563.427 676.285 568.486 676.925 572.946 678.055L596.455 684.592C601.303 686.155 606.345 688.763 611.443 689.018L658.169 818.693C655.371 820.573 652.182 821.935 649.146 823.395C642.217 826.846 635.004 831.151 627.689 833.594L559.183 674.623Z"/>
	<path fill="#033B5F" transform="scale(3.90625 3.90625)" d="M596.455 684.592C601.303 686.155 606.345 688.763 611.443 689.018L658.169 818.693C655.371 820.573 652.182 821.935 649.146 823.395C646.135 818.04 643.932 812.156 641.546 806.504L627.713 771.289L596.455 684.592Z"/>
	<path fill="#F9F0CC" transform="scale(3.90625 3.90625)" d="M235.033 752.202C236.647 744.489 241.484 736.805 246.088 730.5C253.464 720.398 263.929 713.025 275.561 708.563C298.564 699.739 323.143 706.18 344.59 716.212C349.426 718.475 353.914 721.428 358.789 723.596L355.434 710.396C352.59 691.433 356.135 672.605 367.532 657C372.502 650.196 379.235 644.407 386.662 640.429C400.91 632.798 416.86 630.798 432.469 635.224C436.532 636.376 440.278 638.435 444.272 639.56L445.107 639.783L443.284 648.334L460.732 655.473L458.351 672.039C461.605 672.566 464.403 674.769 467.108 676.536L482.632 687.494C486.054 689.955 490.009 692.293 493.073 695.178C485.997 717.189 481.953 739.557 477.978 762.279L470.987 801.111C468.696 814.479 466.86 827.855 463.5 841.005L470.472 841.55C469.726 846.545 470.33 851.542 469.891 856.533L470.853 856.547C470.641 858.095 470.265 859.422 469.75 860.894L467.3 861.179L468.851 861.75L466.606 873.542C465.515 873.972 464.443 874.043 463.289 874.154L466.431 874.608L466.538 875.75C465.718 876.719 465.647 876.466 464.451 876.586L465.75 877.583L456.137 928.939L329.991 928.461L333.636 924.891L300.532 929.21C293.329 930.415 286.037 931.587 279.043 933.737C269.522 932.51 259.072 933.692 249.4 933.343C245.447 931.115 239.227 932.037 234.785 932.048L212.604 931.993L212.548 910.428C212.542 906.372 212.177 902.016 212.878 898.033C219.746 886.794 229.241 876.144 238.461 866.763C261.046 843.786 286.507 825.017 314.584 809.31L334.5 799.054C338.57 797.131 343.853 795.613 347.402 792.909L347.517 792L346.805 791.198L346.012 791.235C343.637 791.422 340.639 793.017 338.442 793.965L321.359 802.035C286.741 820.142 255.285 843.365 228.839 872.228L217.676 885.432C215.9 887.754 214.43 890.237 212.469 892.419L212.579 877.018L212.469 785.302L227.432 771.099L227.89 770.956C230.931 768.159 236.129 766.87 239.992 765.614C249.528 762.514 259.076 760.076 268.85 757.858L267.984 756.233C265.434 753.569 263.095 751.854 259.642 750.523C250.73 747.087 243.577 748.434 235.033 752.202Z"/>
	<path fill="#4AB556" transform="scale(3.90625 3.90625)" d="M268.85 757.858C269.036 760.884 267.661 763.216 265.75 765.497C260.832 771.367 252.042 774.69 244.546 775.162C238.871 775.519 232.585 774.212 227.89 770.956C230.931 768.159 236.129 766.87 239.992 765.614C249.528 762.514 259.076 760.076 268.85 757.858Z"/>
	<path fill="#F7A720" transform="scale(3.90625 3.90625)" d="M423.291 853.433C422.233 853.405 421.404 853.179 420.67 852.33C419.098 850.512 419.383 847.747 419.602 845.5C419.812 843.335 420.457 839.85 422.32 838.523C424.716 836.815 434.919 838.785 437.967 839.14L458.344 840.736L459.192 840.764L463.5 841.005L470.472 841.55C469.726 846.545 470.33 851.542 469.891 856.533L470.853 856.547C470.641 858.095 470.265 859.422 469.75 860.894L467.3 861.179L468.851 861.75L466.606 873.542C465.515 873.972 464.443 874.043 463.289 874.154L422.369 869.692L423.298 856.858L423.291 853.433Z"/>
	<path fill="#9F4846" transform="scale(3.90625 3.90625)" d="M423.291 853.433C425.919 852.148 432.646 853.539 435.693 853.806C446.969 854.793 458.587 856.466 469.891 856.533L470.853 856.547C470.641 858.095 470.265 859.422 469.75 860.894L467.3 861.179L423.298 856.858L423.291 853.433Z"/>
	<path fill="#F7A720" transform="scale(3.90625 3.90625)" d="M423.298 856.858L467.3 861.179L468.851 861.75L466.606 873.542C465.515 873.972 464.443 874.043 463.289 874.154L422.369 869.692L423.298 856.858Z"/>
	<path fill="#F7A720" transform="scale(3.90625 3.90625)" d="M422.369 869.692L463.289 874.154L466.431 874.608L466.538 875.75C465.718 876.719 465.647 876.466 464.451 876.586L465.75 877.583L456.137 928.939L329.991 928.461L333.636 924.891C334.774 924.575 336.115 923.408 337.141 922.731L345.662 917.194L359.859 909.25C379.506 899.213 399.839 891.802 420.913 885.417L422.264 872.502L422.369 869.692Z"/>
	<path fill="#9F4846" transform="scale(3.90625 3.90625)" d="M422.369 869.692L463.289 874.154L466.431 874.608L466.538 875.75C465.718 876.719 465.647 876.466 464.451 876.586L422.264 872.502L422.369 869.692Z"/>
	<path fill="#075074" transform="scale(3.90625 3.90625)" d="M458.351 672.039C461.605 672.566 464.403 674.769 467.108 676.536L482.632 687.494C486.054 689.955 490.009 692.293 493.073 695.178C485.997 717.189 481.953 739.557 477.978 762.279L470.987 801.111C468.696 814.479 466.86 827.855 463.5 841.005L459.192 840.764L458.344 840.736L437.967 839.14L458.351 672.039Z"/>
	<path fill="#033B5F" transform="scale(3.90625 3.90625)" d="M458.344 840.736C458.955 838.735 459.828 837.619 461.25 836.105L462.163 836.37C462.589 837.747 462.458 838.974 462.365 840.385L459.192 840.764L458.344 840.736Z"/>
	<path fill="#4AB556" transform="scale(3.90625 3.90625)" d="M212.579 877.018L212.964 876.565C214.798 873.947 215.576 869.315 216.831 866.224C218.839 861.279 221.14 856.553 223.772 851.913C241.215 821.162 271.985 796.626 306.605 788.361C319.447 785.295 333.377 783.587 346.535 785.09C349.118 785.385 352.41 785.646 354.613 787.109C355.757 787.87 355.885 788.096 356.25 789.346C354.965 795.133 351.171 801.001 348.14 806.047C332.769 831.627 310.881 854.516 285.703 870.63C262.987 885.168 239.551 894.175 212.878 898.033C219.746 886.794 229.241 876.144 238.461 866.763C261.046 843.786 286.507 825.017 314.584 809.31L334.5 799.054C338.57 797.131 343.853 795.613 347.402 792.909L347.517 792L346.805 791.198L346.012 791.235C343.637 791.422 340.639 793.017 338.442 793.965L321.359 802.035C286.741 820.142 255.285 843.365 228.839 872.228L217.676 885.432C215.9 887.754 214.43 890.237 212.469 892.419L212.579 877.018Z"/>
	<path fill="#F9F0CC" transform="scale(3.90625 3.90625)" d="M618.394 466.336C623.381 470.4 626.968 475.14 630.622 480.381C638.287 491.376 643.632 502.617 644.994 516.094C646.016 526.218 644.654 536.667 641.018 546.185C658.77 535.724 681.528 529.068 701.99 534.25C714.847 537.506 728.138 546.055 734.96 557.645C739.176 564.808 741.144 572.183 742.322 580.35C749.125 581.529 755.761 583.897 762.192 586.385C764.335 587.214 766.601 588.705 768.814 589.12C770.105 595.803 773.07 600.048 778.642 603.932C785.243 608.534 792.288 610.083 799.284 613.518C788.448 612.009 776.253 611.062 767.1 618.296C764.43 620.406 761.932 624.129 761.515 627.582C760.999 631.852 761.894 636.517 764.682 639.891C767.295 643.051 771.502 645.131 775.578 645.447C784.912 646.171 793.34 641.444 800.865 636.485C803.409 634.809 805.789 632.852 808.5 631.452L808.75 631.872C799.688 638.485 787.394 648.02 785.52 660C784.87 664.155 785.512 669.733 788.25 673.041C790.828 676.154 795.171 678.33 799.25 678.464C804.406 678.634 808.951 675.962 812.469 672.421C815.709 669.16 817.611 665.444 819.467 661.283C821.973 662.156 824.133 663.513 826.391 664.875L826.596 665.193C828.236 666.588 829.023 668.741 829.607 670.775C832.557 674.767 835.834 677.749 841 678.441C845.405 679.031 849.693 677.934 853.247 675.228L855.996 672.768C865.607 674.952 876.188 678.637 885.037 683.008C891.673 680.907 903.488 676.938 910.053 680.54C911.899 681.553 913.77 683.463 914.362 685.539C915.6 689.883 912.849 695.493 911.286 699.461C914.675 704.152 918.319 708.796 921.132 713.865C930.298 730.38 933.115 748.176 930.062 766.808C929.251 771.756 927.814 776.668 925.62 781.181L925.482 781.521L925.2 783.387C921.063 805.128 906.522 823.556 888.448 835.839C877.221 843.469 864.024 849.668 850.751 852.666C844.029 854.272 837.005 855.591 830.079 855.533C828.951 863.24 829.782 872.158 829.798 879.993L829.935 931.45L826.938 931.498L801.628 931.406C797.654 931.397 791.577 930.522 788.057 932.336C781.385 931.803 774.498 932.101 767.801 932.104C760.456 932.108 752.683 931.795 745.41 932.88C742.906 932.77 739.714 931.415 737.208 930.826C729.867 929.102 721.212 926.964 713.734 926.552C704.237 930.371 693.422 931.709 683.514 934.317L680.088 921.873L678.937 922.111C677.492 919.212 677.319 914.859 676.675 911.641L672.627 894.609L665.475 873.037C664.022 868.956 661.846 864.5 661.321 860.2C660.999 859.05 660.929 858.96 660.023 858.179C660.177 856.697 659.408 855.643 658.796 854.313L654.017 844.068L622.53 857.714L620.712 853.127C619.359 853.425 618.046 853.627 616.652 853.58C615.056 853.527 613.899 852.724 612.868 851.572C610.384 848.796 609.859 845.841 610.051 842.25C613.492 838.171 622.489 834.421 627.689 833.594C635.004 831.151 642.217 826.846 649.146 823.395C652.182 821.935 655.371 820.573 658.169 818.693L611.443 689.018L603.865 662.834C607.033 661.777 610.564 661.263 613.831 660.566L635.472 653.705C629.392 638.804 624.502 623.483 619.82 608.099C612.743 584.841 606.716 561.407 602.206 537.515C600.113 526.423 597.89 515.267 597.435 503.959C606.754 492.096 613.994 480.852 618.394 466.336Z"/>
	<path fill="#4AB556" transform="scale(3.90625 3.90625)" d="M746.48 681.433C747.52 680.231 748.419 679.668 750 679.498C754.142 679.053 758.457 679.842 762.504 680.657C775.165 683.207 787.449 688.607 797.222 697.163C804.228 703.295 809.067 711.399 809.779 720.825C810.088 724.922 808.889 729.211 806.379 732.49C801.586 728.744 797.294 723.564 792.812 719.349L758.522 689.609C755.203 686.939 750.587 682.079 746.48 681.433Z"/>
	<path fill="#4AB556" transform="scale(3.90625 3.90625)" d="M745.506 682.979L803.913 735.133C802.068 736.687 799.721 737.838 797.461 738.681C791.788 740.795 784.772 738.793 779.485 736.372C765.125 729.797 753.043 713.44 747.654 698.915C746.217 695.042 743.648 687.003 745.506 682.979Z"/>
	<path fill="#096B3C" transform="scale(3.90625 3.90625)" d="M826.596 665.193C828.236 666.588 829.023 668.741 829.607 670.775L829.721 754.967L852.683 732.009L853.227 731.576C862.254 724.313 901.225 683.527 908.25 682.525L908.956 683.5C907.001 686.776 902.867 689.685 900.007 692.279L883.118 707.766L855.331 734.372L829.701 759.847L829.591 816.785L828.934 850.933L828.219 850.634C827.378 849.292 827.455 847.455 827.359 845.902C827.12 842.042 827.481 837.868 826.68 834.1L826.717 759.494C824.91 756.773 822.068 754.255 819.833 751.849L803.913 735.133L745.506 682.979L746.48 681.433C750.587 682.079 755.203 686.939 758.522 689.609L792.812 719.349C797.294 723.564 801.586 728.744 806.379 732.49C809.072 734.818 811.544 737.937 813.934 740.606L826.499 754.642L826.596 665.193Z"/>
	<path fill="#0E8849" transform="scale(3.90625 3.90625)" d="M733.591 793.595C736.626 793.186 740.831 796.205 743.536 797.608C764.506 808.483 785.093 822.348 803.891 836.65L817.527 847.998C818.807 849.141 821.78 852.503 823.277 852.776C823.813 853.355 824.229 853.868 824.685 854.523C818.277 854.688 811.421 853.385 805.29 851.547C774.177 842.219 748.929 822.265 733.591 793.595Z"/>
	<path fill="#F7A720" transform="scale(3.90625 3.90625)" d="M658.169 818.693C661.005 816.596 669 811.979 672.5 812.403C673.854 812.567 674.879 813.67 675.595 814.75C677.791 818.06 678.673 821.271 678.421 825.25C677.417 827.387 675.232 828.339 673.238 829.43L676.452 835.438C668.735 837.256 661.285 840.936 654.017 844.068L622.53 857.714L620.712 853.127C619.359 853.425 618.046 853.627 616.652 853.58C615.056 853.527 613.899 852.724 612.868 851.572C610.384 848.796 609.859 845.841 610.051 842.25C613.492 838.171 622.489 834.421 627.689 833.594C635.004 831.151 642.217 826.846 649.146 823.395C652.182 821.935 655.371 820.573 658.169 818.693Z"/>
	<path fill="#A51531" transform="scale(3.90625 3.90625)" d="M620.712 853.127C626.032 852.094 631.554 848.852 636.511 846.613L673.238 829.43L676.452 835.438C668.735 837.256 661.285 840.936 654.017 844.068L622.53 857.714L620.712 853.127Z"/>
	<path fill="#F9F0CC" transform="scale(3.90625 3.90625)" d="M829.607 670.775C832.557 674.767 835.834 677.749 841 678.441C845.405 679.031 849.693 677.934 853.247 675.228L855.996 672.768C865.607 674.952 876.188 678.637 885.037 683.008C872.302 688.234 857.848 696.094 852.359 709.576C849.933 715.534 849.33 724.552 851.959 730.549L852.683 732.009L829.721 754.967L829.607 670.775Z"/>
	<path fill="#4AB556" transform="scale(3.90625 3.90625)" d="M885.037 683.008C891.673 680.907 903.488 676.938 910.053 680.54C911.899 681.553 913.77 683.463 914.362 685.539C915.6 689.883 912.849 695.493 911.286 699.461C905.558 711.291 899.224 721.269 888.963 729.753C885.418 732.684 881.166 735.672 876.789 737.173C871.429 739.012 865.227 739.714 860 737.106L855.331 734.372L883.118 707.766L900.007 692.279C902.867 689.685 907.001 686.776 908.956 683.5L908.25 682.525C901.225 683.527 862.254 724.313 853.227 731.576L852.683 732.009L851.959 730.549C849.33 724.552 849.933 715.534 852.359 709.576C857.848 696.094 872.302 688.234 885.037 683.008Z"/>
	<path fill="#F49027" transform="scale(3.90625 3.90625)" d="M676.452 835.438C679.935 841.781 682.71 848.661 685.797 855.22L703.655 894.926L708.618 908.074C709.446 910.57 709.936 913.305 711.016 915.689C712.654 918.454 713.175 923.324 713.734 926.552C704.237 930.371 693.422 931.709 683.514 934.317L680.088 921.873L678.937 922.111C677.492 919.212 677.319 914.859 676.675 911.641L672.627 894.609L665.475 873.037C664.022 868.956 661.846 864.5 661.321 860.2C660.999 859.05 660.929 858.96 660.023 858.179C660.177 856.697 659.408 855.643 658.796 854.313L654.017 844.068C661.285 840.936 668.735 837.256 676.452 835.438Z"/>
	<path fill="#A51531" transform="scale(3.90625 3.90625)" d="M711.016 915.689C712.654 918.454 713.175 923.324 713.734 926.552C704.237 930.371 693.422 931.709 683.514 934.317L680.088 921.873L711.016 915.689Z"/>
	<path fill="#4AB556" transform="scale(3.90625 3.90625)" d="M733.591 793.595C731.128 789.788 729.407 785.568 730.462 780.972C731.068 778.331 732.807 776.07 735.107 774.659C741.024 771.031 754.158 773.593 760.571 775.375C784.807 782.112 808.42 801.571 820.503 823.5C821.844 825.933 823.171 828.431 824.285 830.977C824.874 832.325 825.323 834.196 826.331 835.241L826.68 834.1C827.481 837.868 827.12 842.042 827.359 845.902C827.455 847.455 827.378 849.292 828.219 850.634L828.934 850.933L829.548 850.524C831.448 849.205 833.093 846.788 834.659 845.031L843.098 836.403C849.732 830.192 907.736 779.239 910.994 780.065C911.987 780.316 912.64 781.068 913.36 781.75C907.471 786.921 900.856 791.324 894.799 796.311C872.761 814.459 850.447 833.143 831.154 854.206C830.844 854.559 830.241 855.101 830.079 855.533C828.951 863.24 829.782 872.158 829.798 879.993L829.935 931.45L826.938 931.498L826.433 856.25L824.685 854.523C824.229 853.868 823.813 853.355 823.277 852.776C821.78 852.503 818.807 849.141 817.527 847.998L803.891 836.65C785.093 822.348 764.506 808.483 743.536 797.608C740.831 796.205 736.626 793.186 733.591 793.595Z"/>
	<path fill="#096B3C" transform="scale(3.90625 3.90625)" d="M823.277 852.776C818.775 847.694 813.525 843.33 808.599 838.671L781.204 813.648L755.34 792.864L744.889 784.591C742.899 783.134 738.519 780.493 737.939 778L738.567 777.107C739.804 776.949 740.095 776.965 741.25 777.613C745.78 780.151 750.237 784.222 754.393 787.372L789.433 816.085L811.449 835.129L820.432 843.857C822.568 846.113 825.623 850.766 828.233 852.076L828.934 850.933L829.548 850.524C831.448 849.205 833.093 846.788 834.659 845.031L843.098 836.403C849.732 830.192 907.736 779.239 910.994 780.065C911.987 780.316 912.64 781.068 913.36 781.75C907.471 786.921 900.856 791.324 894.799 796.311C872.761 814.459 850.447 833.143 831.154 854.206C830.844 854.559 830.241 855.101 830.079 855.533C828.951 863.24 829.782 872.158 829.798 879.993L829.935 931.45L826.938 931.498L826.433 856.25L824.685 854.523C824.229 853.868 823.813 853.355 823.277 852.776Z"/>
	<path fill="#4AB556" transform="scale(3.90625 3.90625)" d="M829.591 816.785C830.681 824.545 829.606 833.254 830.02 841.173C831.814 836.563 832.646 831.721 834.689 827.172C841.96 810.985 856.994 795.537 872.162 786.506C882.709 780.227 905.938 771.118 918.291 774.612C922.172 775.71 923.704 778.152 925.482 781.521L925.2 783.387C921.063 805.128 906.522 823.556 888.448 835.839C877.221 843.469 864.024 849.668 850.751 852.666C844.029 854.272 837.005 855.591 830.079 855.533C830.241 855.101 830.844 854.559 831.154 854.206C850.447 833.143 872.761 814.459 894.799 796.311C900.856 791.324 907.471 786.921 913.36 781.75C912.64 781.068 911.987 780.316 910.994 780.065C907.736 779.239 849.732 830.192 843.098 836.403L834.659 845.031C833.093 846.788 831.448 849.205 829.548 850.524L828.934 850.933L829.591 816.785Z"/>
	<path fill="#0E8849" transform="scale(3.90625 3.90625)" d="M831.154 854.206C833.005 853.635 834.593 851.806 836.156 850.656L845.665 843.988L878.5 819.452C893.59 807.188 908.527 793.439 925.2 783.387C921.063 805.128 906.522 823.556 888.448 835.839C877.221 843.469 864.024 849.668 850.751 852.666C844.029 854.272 837.005 855.591 830.079 855.533C830.241 855.101 830.844 854.559 831.154 854.206Z"/>
	<path fill="#F9F0CC" transform="scale(3.90625 3.90625)" d="M911.286 699.461C914.675 704.152 918.319 708.796 921.132 713.865C930.298 730.38 933.115 748.176 930.062 766.808C929.251 771.756 927.814 776.668 925.62 781.181L925.482 781.521C923.704 778.152 922.172 775.71 918.291 774.612C905.938 771.118 882.709 780.227 872.162 786.506C856.994 795.537 841.96 810.985 834.689 827.172C832.646 831.721 831.814 836.563 830.02 841.173C829.606 833.254 830.681 824.545 829.591 816.785L829.701 759.847L855.331 734.372L860 737.106C865.227 739.714 871.429 739.012 876.789 737.173C881.166 735.672 885.418 732.684 888.963 729.753C899.224 721.269 905.558 711.291 911.286 699.461Z"/>
</svg>
